<?xml version="1.0" encoding="UTF-8"?>
<svg width="675px" height="852px" viewBox="0 0 675 852" version="1.1" xmlns="http://www.w3.org/2000/svg" xmlns:xlink="http://www.w3.org/1999/xlink">
    <!-- Generator: Sketch 63 (92445) - https://sketch.com -->
    <title>icon09</title>
    <desc>Created with Sketch.</desc>
    <g id="icon09" stroke="none" stroke-width="1" fill="none" fill-rule="evenodd">
        <g id="编组" transform="translate(5.000000, 8.500000)">
            <polygon id="矩形备份-5" stroke="#492455" stroke-width="0.8" fill="#EBD3CF" points="499.888348 712.149694 537.995236 748.757429 525.259885 760.609479 489.933713 728.932722"></polygon>
            <path d="M487.160003,727.267682 C506.499231,744.451972 520.354537,756.747383 528.725921,764.153913 L520.299697,771.683307 C525.848593,780.918117 530.87776,786.647355 535.387197,788.871022 C544.375903,793.303481 561.01546,791.756465 563.004384,792.749714 C567.203468,794.846694 570.225864,802.368569 572.071572,815.315339 C573.036155,820.66638 563.755686,823.341901 544.230166,823.341901 C524.704645,823.341901 502.428343,816.363516 477.401259,802.406745 C463.286699,795.243005 456.658755,789.168923 457.517425,784.184499 C458.376095,779.200075 468.256955,760.227803 487.160003,727.267682 Z" id="矩形备份-6" stroke="#492455" stroke-width="0.8" fill="#781E21"></path>
            <polygon id="矩形" stroke="#492455" stroke-width="0.8" fill="#EBD3CF" points="412.039182 770.84318 469.640744 770.84318 469.640744 788.91864 412.039182 788.91864"></polygon>
            <path d="M434.458477,507.941151 C468.170008,506.489565 494.712484,502.814896 514.085907,496.917144 C533.459329,491.019391 547.018704,482.486058 554.764032,471.317144 C606.009246,522.719862 629.646746,560.987132 625.676532,586.118952 C624.697836,592.314182 566.039022,734.163912 537.995236,759.215925 L488.236949,711.336237 C489.856741,702.309675 508.058114,663.596124 542.841069,595.195585 C542.081377,585.459653 532.496323,572.394167 514.085907,555.999128 L475.96325,770.84318 L409.078094,770.84318 C408.022777,712.369975 409.447256,666.492914 413.351532,633.211999 C417.255808,599.931084 424.291456,558.174134 434.458477,507.941151 Z" id="矩形" stroke="#492455" stroke-width="0.8" fill="#492455"></path>
            <polygon id="矩形" fill="#390F47" points="519.986936 515.995043 527.078488 569.02537 514.389279 556.734599"></polygon>
            <path d="M408.741264,779.88091 L474.038138,779.88091 C474.900179,790.619208 476.077279,799.301895 477.56944,805.92897 C484.672966,821.739414 486.943804,832.518985 484.381955,838.267682 L401.284772,838.267682 C397.469668,833.140729 398.706918,823.679585 404.996521,809.88425 C406.442199,805.271802 407.690447,795.270689 408.741264,779.88091 Z" id="矩形备份-4" stroke="#492455" stroke-width="0.8" fill="#781E21"></path>
            <path d="M243.012231,66.9699138 C256.606008,61.7613781 264.80597,59.0554586 267.612118,58.8521551 C257.673038,65.9984882 253.629093,70.3345885 255.480282,71.8604559 C264.923431,79.6441 295.804588,60.0259034 303.706256,55.5379797 L315.671267,48.3775995 C314.559871,42.224127 314.877496,30.3541547 316.624143,12.7676825 L303.706256,12.954162 C260.53253,14.7253495 236.613847,24.0117332 231.950206,40.8133133 C227.286565,57.6148934 230.973906,66.3337602 243.012231,66.9699138 Z" id="矩形备份-9" stroke="#7A2225" fill="#FFDBD5" stroke-linejoin="round" transform="translate(273.310513, 43.217216) scale(-1, 1) translate(-273.310513, -43.217216) "></path>
            <path d="M356.63949,66.7834343 C368.685969,61.8391988 376.112282,59.2654293 378.918429,59.0621259 C369.023833,68.1100027 365.037041,73.1970038 366.958055,74.3231292 C378.080538,80.8432864 409.431848,59.839424 417.333515,55.3515002 L433.305391,47.4911194 L433.305391,12.7676825 L417.333515,12.7676825 C374.15979,14.53887 350.241106,23.8252538 345.577465,40.6268339 C340.913824,57.4284139 344.601166,66.1472807 356.63949,66.7834343 Z" id="矩形备份-3" stroke="#7A2225" fill="#FFDBD5" stroke-linejoin="round"></path>
            <path d="M191.547856,757.937926 L213.038481,698.267682 L225.891606,727.936432 C219.702125,756.803886 214.480347,775.134615 210.226271,782.92862 C203.674515,794.932266 193.724289,803.532787 180.375591,808.730182 L191.547856,757.937926 Z" id="矩形备份-18" stroke="#492455" fill="#781E21"></path>
            <path d="M320.790646,521.23155 L324.286252,554.223737 L326.623654,572.874128 C319.712985,573.048262 314.935071,572.766035 312.289914,572.027448 C298.873299,568.28123 297.620854,563.198713 295.434689,553.995562 C291.781044,538.614718 294.705964,522.758485 304.20945,506.426862 L320.790646,521.23155 Z" id="矩形备份-19" stroke="#7A2225" fill="#FFDBD5"></path>
            <path d="M475.96325,281.970593 L511.820196,268.635436 C520.22465,258.940083 533.240028,251.018019 550.86633,244.869245 C577.305783,235.646084 615.110702,224.21469 596.42883,142.076276 C583.680132,86.0241929 528.472319,57.1270575 430.805391,55.38487 C426.314167,43.4020785 426.314167,25.1447865 430.805391,0.612994184 C441.711131,0.612994184 635.881955,-17.2205988 659.532346,139.492292 C669.888036,208.111458 642.479181,265.480297 577.305783,311.598807 C573.495887,406.026495 564.682736,462.462018 550.86633,480.905378 C526.37421,513.599622 488.950803,524.515729 430.130002,528.623151 C425.907346,528.623151 414.958127,529.295026 420.094846,520.246198 C424.20794,513.000583 430.805391,492.148885 430.805391,463.308698 C430.805391,428.317777 432.393774,395.343533 430.130002,381.375104 C415.870843,388.961042 382.564202,439.183869 330.21008,532.043584 C320.787155,522.64486 312.962285,515.656083 306.735471,511.077253 C305.040367,509.830774 302.350785,505.216842 298.666727,497.235456 C298.515736,493.080633 372.323361,333.582136 425.231564,302.119245 C430.875027,298.314557 447.785589,291.59834 475.96325,281.970593 Z" id="矩形备份-2" stroke="#7A2225" fill="#5CACC9"></path>
            <path d="M117.93114,685.385436 L158.475672,642.718249 C160.603966,669.714754 160.603966,689.761831 158.475672,702.859479 C156.347377,715.957128 152.599342,718.975682 147.231564,711.915143 L117.93114,685.385436 Z" id="矩形备份-14" stroke="#492455" fill="#781E21"></path>
            <polygon id="矩形备份-17" stroke="#492455" fill="#EBD3CF" points="119.814572 676.672956 157.347622 637.051843 158.475672 642.718249 122.214963 681.031354"></polygon>
            <path d="M38.9806576,465.328464 C87.6786118,483.9912 121.7143,490.373692 141.087722,484.47594 C160.461145,478.578187 174.02052,470.044854 181.765847,458.87594 C221.622758,512.309969 239.566106,551.592894 235.595892,576.724714 C234.617197,582.919944 185.547881,655.979342 157.504095,681.031354 C141.408714,664.118378 129.218735,651.276195 120.934156,642.504805 C118.578352,640.01057 115.044644,636.269218 110.333035,631.280749 C111.115338,626.921232 113.911049,620.180809 118.720168,611.059479 C123.868532,601.294711 141.087722,584.167097 150.358587,570.211042 C141.14179,559.129011 131.598822,545.597044 121.729681,529.615141 L118.720168,610.365827 L110.333035,631.280749 L121.729681,644.286237 L126.81058,702.79505 L54.3611599,720.261999 C47.9766323,693.807455 42.8497983,657.724714 38.9806576,612.013776 C35.111517,566.302839 35.111517,517.407735 38.9806576,465.328464 Z" id="矩形备份-15" stroke="#492455" stroke-width="0.8" fill="#492455" transform="translate(136.107088, 589.568969) scale(-1, 1) translate(-136.107088, -589.568969) "></path>
            <path d="M203.236218,187.907708 C203.199864,213.493758 203.479237,231.221334 204.074338,241.090436 C204.12291,241.895951 204.183773,242.690937 204.256927,243.475395 C212.339764,250.02387 219.271151,262.071571 222.718495,275.304389 C228.282639,296.66266 217.154351,303.104787 203.244969,306.061317 C189.335586,309.017848 172.786978,306.399093 172.348165,286.010933 C172.172056,277.828556 172.515313,269.058879 173.888535,261.300092 L173.624143,261.267682 L173.624143,204.454361 L203.236218,187.907708 Z" id="椭圆形备份-2" stroke="#5A1371" fill="#492455"></path>
            <path d="M347.007688,511.077253 C357.80147,527.747175 361.805946,541.83474 359.021115,553.339948 C354.843869,570.597761 346.691414,573.434952 326.623654,572.874128 C323.217485,555.662132 321.305294,545.131045 320.887082,541.280866 C320.400266,536.799095 320.400266,533.043154 320.887082,530.013044 L347.007688,511.077253 Z" id="矩形" stroke="#7A2225" fill="#FFDBD5"></path>
            <path d="M163.641736,281.970593 L199.498681,268.635436 C216.943194,262.232029 229.238014,258.700259 236.383142,258.040124 C240.25309,257.682581 294.81548,190.867167 278.326791,132.279186 C259.151367,64.1446356 166.410267,54.9840887 119.874329,59.1801833 C115.383105,47.1973918 115.383105,28.9400998 119.874329,4.40830749 C134.918079,3.16143249 312.49707,-11.8455988 346.617517,128.307923 C370.37741,225.904319 256.269351,327.693762 254.708823,329.708874 C254.518076,329.955185 253.331805,412.085391 263.204028,453.098613 C265.310955,461.851641 313.667229,530.599244 312.901367,539.675412 C312.250658,547.386909 256.935713,601.072517 200.450989,587.229765 C163.641736,578.208894 131.038085,578.208894 104.751953,589.568969 C78.4658214,600.929044 124.175286,439.255849 113.73584,377.640729 C92.0146484,389.328229 40.5097656,529.670515 33.2470703,533.011579 C27.8414714,533.011579 21.3414714,530.432559 13.7470703,525.274518 C6.15266927,520.116478 1.5703125,514.653587 2.84217094e-13,508.885847 C0.836747991,503.487837 11.4609613,471.116862 13.7470703,464.44028 C39.7371506,388.536237 83.5419922,308.855587 123.766772,289.974714 C131.733136,285.354524 145.024791,282.686484 163.641736,281.970593 Z" id="矩形备份-7" stroke="#7A2225" fill="#FFE683" transform="translate(174.935606, 296.749358) scale(-1, 1) translate(-174.935606, -296.749358) "></path>
            <path d="M477.581588,251.274199 L513.121846,235.605494 C516.31034,250.873005 520.236096,260.922209 524.899115,265.753107 C527.504078,268.451854 521.363892,290.954904 500.691819,292.512093 C491.01108,293.241325 482.768223,289.70045 475.96325,281.88947 C479.386839,277.360916 479.926285,267.155826 477.581588,251.274199 Z" id="矩形" stroke="#7A2225" fill="#FFDBD5"></path>
            <path d="M133.338421,247.398249 L172.653868,235.646084 C171.769367,251.18893 173.893331,261.357517 179.025759,266.151844 C181.892954,268.830161 174.925463,291.255485 152.172405,292.800886 C141.51714,293.524597 134.938202,289.292989 132.435589,280.106061 C136.203818,275.611791 136.504762,264.709187 133.338421,247.398249 Z" id="矩形备份-8" stroke="#7A2225" fill="#FFDBD5" transform="translate(156.035481, 264.263121) scale(-1, 1) translate(-156.035481, -264.263121) "></path>
            <path d="M442.779294,157.50987 C445.290687,153.142876 448.552661,150.937894 452.565215,150.894925 C454.918302,144.47481 458.579872,140.003522 463.549924,137.481061 C469.772523,134.322892 475.593518,133.831132 481.012907,136.005781 C484.449074,132.11658 489.214179,130.171979 495.308225,130.171979 C502.806046,130.171979 509.130979,131.453718 514.893186,136.005781 C518.734657,139.040489 521.076617,141.761254 521.919064,144.168073 C526.231239,144.168073 529.522417,145.990013 531.7926,149.633893 C534.062782,153.277774 534.870729,156.690704 534.216441,159.872685 C541.953737,166.748647 545.559852,174.672142 545.034787,183.643171 C544.4488,193.655083 541.068192,200.944752 534.892962,205.512176 C534.286972,209.225013 534.055094,213.087207 529.310178,217.298444 C526.1469,220.105936 522.056779,221.458891 517.039813,221.357311 C501.353829,223.482879 491.931373,218.014378 486.167157,218.690124 C473.798782,220.140082 452.898361,220.625876 446.838986,204.054001 C442.165484,199.529789 439.517046,193.776634 438.893674,186.794538 C438.367771,180.904155 439.662978,176.019265 442.779294,172.139867 C440.267901,166.75353 440.267901,161.876864 442.779294,157.50987 Z" id="矩形备份" stroke="#492455" fill="#492455"></path>
            <path d="M185.81239,146.502624 C205.697049,159.869538 208.70132,186.974542 194.825203,227.817637 L176.424422,226.133652 C160.738438,228.25922 150.027175,224.659381 144.671297,227.817637 C143.854555,228.299254 143.156491,229.214766 142.565491,230.499418 C155.087357,241.85574 163.667932,264.416978 163.667932,286.671932 C163.667932,318.214853 146.886953,325.603285 125.623784,325.603285 C104.360614,325.603285 86.6671846,316.827158 86.6671846,286.671932 C86.6671846,266.727265 94.207599,245.299349 105.466028,233.07502 C101.061945,205.49377 108.644647,177.38189 115.862424,160.600585 C124.713986,140.020734 155.985402,126.452253 185.81239,146.502624 Z" id="矩形备份-13" stroke="#5A1371" fill="#492455"></path>
            <path d="M451.692937,189.917906 C452.255147,189.192106 453.277788,188.640322 454.760861,188.262556 C456.985471,187.695905 466.782748,189.334309 477.74426,185.044648 C481.492445,183.577839 485.661095,181.603553 490.250208,179.121791 C489.290025,180.845534 486.461301,182.819819 481.764035,185.044648 C492.813026,182.644998 500.716021,177.724063 505.47302,170.281843 C507.59677,177.93551 510.117197,182.856446 513.034299,185.044648 C519.244487,180.113646 523.28418,180.113646 525.153378,185.044648 C526.359838,188.227326 525.64367,198.773345 522.920915,204.87873 C521.923797,207.114622 520.557463,208.942105 518.821913,210.361179 C519.6444,221.857712 519.6444,229.648487 518.821913,233.733503 C517.588184,239.861027 495.269266,252.13326 483.643186,253.496198 C472.017105,254.859136 464.586276,246.130688 458.890558,230.553382 C455.093412,220.168512 452.694205,206.623353 451.692937,189.917906 Z" id="矩形" stroke="#7A2225" fill="#FFDBD5" stroke-linejoin="round"></path>
            <path d="M138.884545,187.907708 C142.259293,187.042823 145.834901,185.673557 149.611367,183.799909 C150.150121,183.532613 150.943415,180.916728 151.99125,175.952253 C151.690631,180.564883 151.690631,183.038434 151.99125,183.372907 C152.291868,183.70738 154.92875,183.417748 159.901894,182.504011 L162.578686,171.580772 C163.115952,171.567991 161.608905,180.958504 164.53959,182.504011 C166.205475,183.382521 178.350657,184.689161 200.975136,186.423932 C203.902754,194.226316 209.692037,246.59435 174.590371,250.267682 C151.18926,252.716571 139.287318,231.929913 138.884545,187.907708 Z" id="矩形备份-11" stroke="#7A2225" fill="#FFDBD5" stroke-linejoin="round" transform="translate(171.060382, 211.021014) scale(-1, 1) translate(-171.060382, -211.021014) "></path>
            <path d="M176.351799,200.06677 C176.351799,208.363687 169.697036,215.089667 161.487971,215.089667 C153.278905,215.089667 146.624143,208.363687 146.624143,200.06677 C146.624143,191.769853 153.278905,185.043873 161.487971,185.043873 C168.672564,185.043873 174.666594,190.195833 176.050779,197.043881 L184.858331,197.044146 C186.142173,190.195966 191.702142,185.043873 198.366477,185.043873 C205.981,185.043873 212.153791,191.769853 212.153791,200.06677 C212.153791,208.363687 205.981,215.089667 198.366477,215.089667 C190.751953,215.089667 184.579162,208.363687 184.579162,200.06677 L184.579162,200.06677 Z" id="椭圆形备份-6" stroke="#781E21" stroke-width="0.96" fill="#FFCC00"></path>
            <path d="M444.681016,191.042368 C447.393523,187.402701 464.827715,186.939554 467.546039,189.951832 C469.640298,192.272559 471.024314,195.25935 471.350636,198.561035 L483.38745,198.561479 C483.79725,195.863133 484.866999,193.407517 486.409963,191.398098 C488.939078,188.104402 506.714408,189.144597 509.063459,193.774266 C510.155104,195.925755 510.776477,198.40002 510.776477,201.03242 C510.776477,209.329337 504.603686,216.055317 496.989162,216.055317 C489.544193,216.055317 483.477464,209.62554 483.210978,201.584274 L471.350578,201.584229 C470.600426,209.171181 464.265249,215.095236 456.561086,215.095236 C448.352021,215.095236 441.697258,208.369256 441.697258,200.072339 C441.697258,196.683075 442.807736,193.555952 444.681016,191.042368 Z" id="椭圆形备份-7" stroke="#781E21" stroke-width="0.96" fill="#A258BA" transform="translate(476.236867, 202.011988) scale(-1, 1) rotate(13.000000) translate(-476.236867, -202.011988) "></path>
            <polygon id="矩形备份-12" stroke="#492455" fill="#EBD3CF" points="153.091916 704.897565 211.04364 719.172936 208.875607 725.253405 149.707541 713.149128"></polygon>
            <path d="M140.819422,709.424499 L208.875607,725.253405 C194.040524,763.904094 187.084816,784.964511 188.008484,788.434655 C188.148076,788.959091 185.938701,798.857789 181.380359,818.130749 C179.38062,828.326061 175.982442,834.478666 171.185828,836.588561 C163.990906,839.753405 81.0890866,839.369731 77.5991091,831.533093 C73.2517443,821.771218 78.5841983,804.469532 83.4932832,797.320417 C92.3432832,784.432136 112.577513,787.380143 113.288172,785.11278 C114.73385,780.500333 123.910933,755.270906 140.819422,709.424499 Z" id="矩形备份-16" stroke="#492455" fill="#781E21"></path>
            <path d="M306.735471,569.973249 C306.735471,569.973249 303.243591,561.081416 302.38151,555.337847 C301.737519,551.04729 301.367937,546.797752 302.042111,545.044811" id="直线-2" stroke="#7A2225" stroke-linecap="round" stroke-linejoin="round"></path>
            <path d="M314.744513,572.232038 C314.744513,572.232038 311.252633,562.940742 310.390553,556.939145 C309.746562,552.455836 309.37698,548.01539 310.051154,546.183698" id="直线-2备份-2" stroke="#7A2225" stroke-linecap="round" stroke-linejoin="round"></path>
            <path d="M321.676185,572.923961 C321.676185,572.923961 315.328,559.207868 316.982825,548.737653" id="直线-2备份-3" stroke="#7A2225" stroke-linecap="round" stroke-linejoin="round"></path>
            <path d="M331.858068,572.910987 C331.858068,572.910987 332.897896,566.622971 332.329528,560.531108 C331.889607,555.815951 331.21714,551.159331 330.215695,549.476667" id="直线-2备份" stroke="#7A2225" stroke-linecap="round" stroke-linejoin="round"></path>
            <path d="M339.685878,571.804059 C339.685878,571.804059 341.278374,565.978085 340.70084,560.096131 C340.156335,554.550563 339.273182,548.695267 337.896826,546.875621" id="直线-2备份-4" stroke="#7A2225" stroke-linecap="round" stroke-linejoin="round"></path>
            <path d="M347.403474,569.608015 C347.403474,569.608015 349.381407,563.979694 348.81535,558.581356 C348.57564,556.295298 348.26233,553.856125 347.856074,551.544116 C347.217997,547.912813 346.37373,544.819486 345.269895,543.559675" id="直线-2备份-5" stroke="#7A2225" stroke-linecap="round" stroke-linejoin="round"></path>
            <path d="M353.356065,565.997003 C353.356065,565.997003 355.025313,560.368929 354.779723,555.044758 C354.674344,552.760253 354.246232,549.849259 353.815892,547.663473 C353.305005,545.068568 352.666471,542.954599 351.874205,541.99412" id="直线-2备份-6" stroke="#7A2225" stroke-linecap="round" stroke-linejoin="round"></path>
            <path d="M289.172482,28.1060614 C289.172482,28.1060614 293.63134,28.7283123 300.917355,31.6353583 C303.496673,32.6644798 307.766286,34.9462181 313.726193,38.4805731" id="直线-3" stroke="#781E21" stroke-linecap="round" stroke-linejoin="round"></path>
            <path d="M346.206906,28.1060614 C346.206906,28.1060614 350.665764,28.7283123 357.951779,31.6353583 C360.531097,32.6644798 364.80071,34.9462181 370.760617,38.4805731" id="直线-3备份-7" stroke="#781E21" stroke-linecap="round" stroke-linejoin="round" transform="translate(358.483762, 33.293317) scale(-1, 1) translate(-358.483762, -33.293317) "></path>
            <path d="M287.016232,34.412702 C287.016232,34.412702 295.348137,36.4524334 302.634152,39.3594794 C305.21347,40.3886009 309.483083,42.6703392 315.44299,46.2046942" id="直线-3备份" stroke="#781E21" stroke-linecap="round" stroke-linejoin="round"></path>
            <path d="M344.270383,34.412702 C344.270383,34.412702 352.602287,36.4524334 359.888303,39.3594794 C362.467621,40.3886009 366.737233,42.6703392 372.697141,46.2046942" id="直线-3备份-6" stroke="#781E21" stroke-linecap="round" stroke-linejoin="round" transform="translate(358.483762, 40.308698) scale(-1, 1) translate(-358.483762, -40.308698) "></path>
            <path d="M285.310178,41.09406 C285.310178,41.09406 294.252561,43.2172157 303.815305,47.5437357 C306.237382,48.6395684 310.506995,50.9213067 316.624143,54.3889505" id="直线-3备份-2" stroke="#781E21" stroke-linecap="round" stroke-linejoin="round"></path>
            <path d="M343.624143,41.09406 C343.624143,41.09406 352.566525,43.2172157 362.12927,47.5437357 C364.551347,48.6395684 368.82096,50.9213067 374.938107,54.3889505" id="直线-3备份-5" stroke="#781E21" stroke-linecap="round" stroke-linejoin="round" transform="translate(359.281125, 47.741505) scale(-1, 1) translate(-359.281125, -47.741505) "></path>
            <path d="M282.079221,49.1211981 C282.079221,49.1211981 294.307609,51.6845413 301.593625,54.5915873 C304.172943,55.6207088 308.442556,57.9024471 314.402463,61.4368021" id="直线-3备份-3" stroke="#781E21" stroke-linecap="round" stroke-linejoin="round"></path>
            <path d="M346.124143,49.1211981 C346.124143,49.1211981 358.352531,51.6845413 365.638547,54.5915873 C368.217865,55.6207088 372.487477,57.9024471 378.447385,61.4368021" id="直线-3备份-4" stroke="#781E21" stroke-linecap="round" stroke-linejoin="round" transform="translate(362.285764, 55.279000) scale(-1, 1) translate(-362.285764, -55.279000) "></path>
        </g>
    </g>
</svg>