<?xml version="1.0" encoding="utf-8"?>
<!-- Generator: Adobe Illustrator 24.1.2, SVG Export Plug-In . SVG Version: 6.00 Build 0)  -->
<svg version="1.1" id="图层_8" xmlns="http://www.w3.org/2000/svg" xmlns:xlink="http://www.w3.org/1999/xlink" x="0px" y="0px"
	 viewBox="0 0 1024 1024" style="enable-background:new 0 0 1024 1024;" xml:space="preserve">
<style type="text/css">
	.st0{fill:#9962A4;}
	.st1{fill:#F2C0B4;}
	.st2{fill:#133241;}
	.st3{fill:url(#SVGID_1_);}
	.st4{fill:url(#SVGID_2_);}
	.st5{fill:#624497;}
	.st6{fill:url(#SVGID_3_);}
	.st7{fill:url(#SVGID_4_);}
	.st8{fill:url(#SVGID_5_);}
	.st9{fill:#1E4D5A;}
	.st10{fill:#B6DBED;}
	.st11{fill:#191316;}
	.st12{fill:#EFC4A5;}
	.st13{fill:none;stroke:#E25C9C;stroke-width:2.572;stroke-miterlimit:10;}
	.st14{fill:#112D47;}
	.st15{fill:url(#SVGID_6_);}
	.st16{fill:#F2C5AD;}
	.st17{fill:none;stroke:#E25C9C;stroke-miterlimit:10;}
</style>
<path class="st0" d="M596.42,674.95c-9.23-2.57-19.88,6.77-23.8,20.86c-3.92,14.09,0.38,27.59,9.61,30.16
	c9.23,2.57,19.88-6.77,23.8-20.86C609.95,691.02,605.65,677.52,596.42,674.95z"/>
<path class="st1" d="M638.05,282.73"/>
<g>
	<g>
		<path class="st2" d="M543.86,209.18c0.19-5.75,4.7-10.58,9.82-13.27c5.12-2.68,10.91-3.76,16.39-5.58
			c5.04-1.67,10.69-5.35,10.12-10.6c-0.42-3.89-4.08-6.44-6.92-9.14c-2.84-2.7-5.07-7.37-2.46-10.29c1-1.12,2.48-1.65,3.83-2.33
			c6.43-3.26,10.15-11.1,8.59-18.12c-1.56-7.01-8.26-12.55-15.48-12.79c-11.65-0.39-20.43,11.09-31.89,13.24
			c-8.09,1.52-16.18-1.81-24.09-4.08c-7.91-2.26-17.32-3.2-23.58,2.13c-8.13,6.91-6.35,20.01-11.72,29.21
			c-3.7,6.34-10.48,10.28-14.95,16.11c-9.46,12.32-5.16,32.63,8.48,40.1c13.65,7.47,33.19,0.21,38.59-14.33"/>
	</g>
	<path class="st1" d="M529.34,253.35l-0.29-10.92c0,0,26.91,6.89,28.09-16.63c2.05-40.97,4.98-51.96-11.32-65.21
		c-16.31-13.25-60.35,2.88-59.3,37.31c-1.52,20.26-3.05,40.51-4.57,60.77c2.14,3.18,8.51,11.67,19.81,14.51
		c8.25,2.07,22.84,2.05,27.45-6.83C531.69,261.55,530.29,256.1,529.34,253.35z"/>
	<path class="st1" d="M473.03,200.95c1.45-6.72,8.18-11.03,15.03-9.63c6.86,1.4,11.24,7.97,9.8,14.69
		c-1.44,6.71-8.17,11.03-15.03,9.63C475.98,214.24,471.59,207.66,473.03,200.95z"/>
	<g>
		<path class="st2" d="M550.51,162.59c-1.48,6.65-8.46,10.78-15.24,12.28c-6.78,1.5-13.9,1.18-20.6,2.98
			c-6.7,1.8-13.37,6.7-13.89,13.47c-0.14,1.85,0.16,3.84-0.77,5.46c-1.01,1.77-3.32,2.57-5.36,2.25c-2.04-0.32-3.82-1.57-5.21-3.07
			c-3.64-3.93-4.92-9.62-4.16-14.88c0.76-5.27,3.38-10.14,6.7-14.36c6.38-8.09,15.7-14.13,26.01-15.71
			c10.3-1.59,21.46,1.6,28.57,9.05"/>
	</g>
	
		<linearGradient id="SVGID_1_" gradientUnits="userSpaceOnUse" x1="7628.6548" y1="274.8415" x2="7629.4014" y2="264.7618" gradientTransform="matrix(-0.9269 -0.0154 -0.0154 0.926 7600.1152 73.9187)">
		<stop  offset="0" style="stop-color:#641016"/>
		<stop  offset="0.4002" style="stop-color:#550E10"/>
		<stop  offset="1" style="stop-color:#370B05"/>
	</linearGradient>
	<path class="st3" d="M521.5,197.91c-0.02,1.81,1.17,3.29,2.68,3.31c1.5,0.02,2.74-1.43,2.77-3.24c0.02-1.81-1.17-3.29-2.68-3.31
		C522.76,194.65,521.52,196.1,521.5,197.91z"/>
	
		<linearGradient id="SVGID_2_" gradientUnits="userSpaceOnUse" x1="7599.4521" y1="274.2372" x2="7600.1987" y2="264.1575" gradientTransform="matrix(-0.9269 -0.0154 -0.0154 0.926 7600.1152 73.9187)">
		<stop  offset="0" style="stop-color:#641016"/>
		<stop  offset="0.4002" style="stop-color:#550E10"/>
		<stop  offset="1" style="stop-color:#370B05"/>
	</linearGradient>
	<path class="st4" d="M548.61,198.4c-0.02,1.81,1.17,3.29,2.68,3.31c1.5,0.02,2.74-1.43,2.77-3.24c0.02-1.81-1.17-3.29-2.68-3.31
		C549.87,195.14,548.63,196.59,548.61,198.4z"/>
	<path class="st1" d="M535.75,197.58c0.12,2.47,0.61,5.73,2.33,8.69c1.87,3.22,4.77,5.35,4.43,6.05c-0.24,0.5-1.91-0.16-1.99,0.16
		c-0.03,0.13,0.22,0.35,0.58,0.59c-2.3,0.19-4.45-0.69-5.54-1.23c-1.35-0.67-2.01-1.61-2.33-2.23
		C531.73,206.72,532.64,201.82,535.75,197.58z"/>
	<path class="st1" d="M505.39,204.88c-0.72,2.19,0.91,4.7,3.65,5.6c2.74,0.9,5.54-0.14,6.27-2.33c0.72-2.19-0.91-4.7-3.65-5.6
		C508.92,201.65,506.11,202.69,505.39,204.88z"/>
	<path class="st1" d="M551.53,207.81c0.55,2.15,3.13,3.34,5.83,2.73c0.31-2.73,0.53-5.49,0.65-8.25c-0.81-0.13-1.66-0.07-2.52,0.14
		C552.7,203.18,550.93,205.59,551.53,207.81z"/>
	<path class="st5" d="M517.01,186.87c0.25,0.04,0.51,0,0.74-0.13c3.93-2.21,9.18-0.48,9.23-0.46c0.58,0.19,1.23-0.12,1.43-0.71
		s-0.11-1.23-0.7-1.43c-0.25-0.08-6.25-2.08-11.07,0.63c-0.54,0.31-0.74,0.99-0.43,1.54C516.39,186.62,516.69,186.81,517.01,186.87z
		"/>
	<path class="st5" d="M556.07,187.81c0.16,0,0.32-0.03,0.48-0.1c0.57-0.25,0.83-0.92,0.57-1.49c-1.39-3.15-5.97-2.52-8.45-1.65
		c-0.59,0.21-0.9,0.85-0.69,1.44c0.21,0.59,0.86,0.9,1.44,0.69c1.23-0.43,4.89-1.26,5.65,0.43
		C555.24,187.55,555.65,187.8,556.07,187.81z"/>
	
		<linearGradient id="SVGID_3_" gradientUnits="userSpaceOnUse" x1="7277.9375" y1="830.4121" x2="7286.7437" y2="853.6862" gradientTransform="matrix(-0.9824 -0.1866 -0.1866 0.9824 7853.4023 743.481)">
		<stop  offset="0" style="stop-color:#DB6B51"/>
		<stop  offset="0.1829" style="stop-color:#D45E4D"/>
		<stop  offset="1" style="stop-color:#B5263C"/>
	</linearGradient>
	<path class="st6" d="M544.27,221.64c-1.87-0.63-3.87-1.25-5.97-1.81c-3.43-0.92-6.67-1.59-9.68-2.07c0,0-0.99,7.44,3.49,10.9
		c0.58,0.45,2.11,1.66,4.15,1.63C539.63,230.26,543,226.84,544.27,221.64z"/>
	
		<linearGradient id="SVGID_4_" gradientUnits="userSpaceOnUse" x1="7277.4297" y1="830.6043" x2="7286.2358" y2="853.8784" gradientTransform="matrix(-0.9824 -0.1866 -0.1866 0.9824 7853.4023 743.481)">
		<stop  offset="0" style="stop-color:#DB6B51"/>
		<stop  offset="1" style="stop-color:#B84122"/>
	</linearGradient>
	<path class="st7" d="M540.48,228.42c-1.3,1.17-2.76,1.86-4.23,1.88c-2.04,0.02-3.57-1.19-4.15-1.63c-2.62-2.03-3.36-5.42-3.53-7.88
		C534.2,219.73,539.14,222.74,540.48,228.42z"/>
	<path class="st1" d="M484.29,199.24L484.29,199.24c-0.01,0-7.12-2.03-5.59,3.56c1.52,5.59,6.1,6.1,6.1,6.1"/>
	<polyline class="st1" points="528.51,240.41 510.72,234.31 528.51,258.71 529.05,242.43 	"/>
</g>
<linearGradient id="SVGID_5_" gradientUnits="userSpaceOnUse" x1="670.4833" y1="896.7722" x2="670.5427" y2="896.7722">
	<stop  offset="0" style="stop-color:#37345F"/>
	<stop  offset="1" style="stop-color:#EF93A5"/>
</linearGradient>
<path class="st8" d="M670.54,896.62c-0.04,0-0.06-0.01-0.06-0.01C670.52,897.04,670.54,897.02,670.54,896.62z"/>
<path class="st9" d="M679.66,428.06"/>
<g>
	<path class="st10" d="M471.97,252.34c-4.26,1.29-10.47,5.45-10.47,5.45v13.74l85.27,4.14l-4.14-17.23
		C542.63,258.45,491.38,246.45,471.97,252.34z"/>
	<g>
		<polygon class="st11" points="399.35,638.13 356.17,835.71 498.8,841.82 516.18,699.39 562.04,839.2 674.35,824.15 638.37,605.63 
					"/>
		<path class="st1" d="M609.58,413.5c0,0,50.16,118.2,72.4,129.54s41.71-24.86,41.71-24.86L648.84,372.5L609.58,413.5z"/>
		<path class="st12" d="M405.89,461.48h-43.62c0,0-40.81,69.5,15.02,67.76"/>
		<path class="st13" d="M430.32,339.35c0,0-29.44,77.2-36.64,136.08"/>
		<path class="st10" d="M505.78,604.98c-40.95,8.03-93.32,0.17-111.61-2.15l0.17,43.37c0,0,166.83-35.98,210.01-20.94
			c43.18,15.05,44.49-10.47,44.49-10.47l-2.85-17.68C613.89,595.37,540.35,598.2,505.78,604.98z"/>
		<path class="st9" d="M620.13,436.5l-24.28-150.8l-60.19-13.74l-75.68-3.27c0,0-1,0.6-2.76,1.66c-12,7.25-59.13,36.09-61.79,43.7
			c-3.05,8.72-37.07,152.88-37.07,152.88l35.33,8.51l0.28,73.44c-4.41,15.12-14.2,52.44-3.77,53.48c1.04,0.1,2.4,0.27,3.98,0.47
			c18.28,2.32,70.66,10.18,111.61,2.15c34.57-6.78,108.12-9.61,140.21-7.87c9.21,0.5,15.01,1.37,15.5,2.63
			C663.14,604.04,634.22,491.32,620.13,436.5z"/>
		<path class="st9" d="M610.02,422.66c0,0,50.16-45.8,54.96-42.31l-67.17-95.08h-13.52l-3.93,115.58l23.99,21.81H610.02z"/>
	</g>
</g>
<path class="st14" d="M458.6,629.41c-0.45-0.11-0.91-0.24-1.37-0.4C457.68,629.19,458.14,629.31,458.6,629.41z"/>
<path class="st12" d="M356.17,477.48c0,0-21.87,42.54,0.78,60.77c22.65,18.23,79.85,60.75,82.88,60.75
	c3.04,0,22.23-26.94,22.23-34.4s-87.44-75.24-87.44-75.24L356.17,477.48z"/>
<linearGradient id="SVGID_6_" gradientUnits="userSpaceOnUse" x1="421.9945" y1="553.1993" x2="461.7347" y2="553.1993">
	<stop  offset="0" style="stop-color:#EFC4A5"/>
	<stop  offset="0.9946" style="stop-color:#F3CE97"/>
</linearGradient>
<path class="st15" d="M432.47,558.88c0,0,24.41,15.28,28.93,3.94s-37.45-23.44-37.45-23.44l-1.95,16.71L432.47,558.88z"/>
<path class="st16" d="M439.96,597.65c-0.4,1.22,0.14,2.51,1.31,3.06c4.45,2.12,15.09,6.36,18.19,0.18
	c3.07-6.13-8.81-9.42-14.28-10.59c-1.46-0.31-2.97,0.55-3.42,1.93L439.96,597.65z"/>
<path class="st16" d="M450.26,570.88l1.55-3.79c0.48-1.17,1.83-1.82,3.06-1.46c5.89,1.72,21.29,6.92,18.17,13.37
	c-3.13,6.49-17.81,0.37-23.08-2.09c-1.08-0.51-1.55-1.72-1.08-2.82L450.26,570.88z"/>
<path class="st16" d="M453.09,558.51l1.98-2.23c0.71-0.8,1.8-1.16,2.84-0.95c5.72,1.18,23.65,5.55,19.86,13.58
	c-3.74,7.91-19.7-0.99-24.98-4.23c-1.02-0.62-1.44-1.83-1.04-2.97l0.8-2.27C452.66,559.1,452.85,558.79,453.09,558.51z"/>
<path class="st16" d="M444.97,582.14l0.81-1.73c0.65-1.4,2.18-2.29,3.76-2.16c6.74,0.54,23.48,2.9,17.8,12.75
	c-5.55,9.63-18.01,2.12-23.06-1.5c-1.3-0.94-1.7-2.63-0.96-4.09L444.97,582.14z"/>
<path class="st16" d="M687.58,544.14c-0.98,0.84-1.17,2.22-0.45,3.3c2.73,4.11,9.68,13.21,15.51,9.49
	c5.78-3.68-2.72-12.61-6.81-16.42c-1.09-1.01-2.83-1.06-3.93-0.1L687.58,544.14z"/>
<path class="st16" d="M710.16,526.46l3.28-2.46c1.01-0.76,2.51-0.62,3.38,0.32c4.17,4.5,14.71,16.87,8.73,20.81
	c-6.02,3.96-15.47-8.83-18.73-13.64c-0.67-0.99-0.44-2.27,0.53-2.97L710.16,526.46z"/>
<path class="st16" d="M718.95,517.3l2.85-0.9c1.01-0.32,2.14-0.07,2.92,0.64c4.3,3.94,17.44,16.91,10.07,21.85
	c-7.27,4.86-16.39-10.97-19.27-16.46c-0.56-1.06-0.3-2.31,0.63-3.08l1.85-1.54C718.27,517.59,718.59,517.41,718.95,517.3z"/>
<path class="st16" d="M699.84,533.4l1.58-1.07c1.28-0.87,3.04-0.84,4.33,0.08c5.5,3.93,18.65,14.55,8.72,20.08
	c-9.71,5.41-16.55-7.43-19.01-13.13c-0.64-1.47-0.1-3.13,1.28-4L699.84,533.4z"/>
<path class="st17" d="M695.63,540.35c0,0,5.24,9.75,8.96,11.19"/>
<path class="st17" d="M716.88,524.22c0,0,6.53,7.78,8.96,11.19"/>
<path class="st17" d="M708.75,534.22c1.53,1.52,5.88,4.54,7.57,9.75"/>
</svg>
