<svg width="1080" height="1080" viewBox="0 0 1080 1080" fill="none" xmlns="http://www.w3.org/2000/svg">
<rect width="1080" height="1080" fill="white"/>
<path d="M278.5 584.117C278.294 584.111 274.088 583.986 273.882 583.975M278.5 584.117C292.1 584.517 279.755 584.15 273.882 583.975M278.5 584.117C299.667 647.784 343.56 766.117 389 766.117C407 766.117 427.5 711.5 447 663L398.5 640C395.667 647.833 386.822 666.8 382.822 674L391.5 685.5C370 656.5 319.2 592.6 288 569C288 559 290 534.5 261 522C252.083 518.156 276.7 547.3 265.5 544.5C251.5 541 220 516.5 208 516.5C201.165 516.5 217.5 528.5 222 535C211.5 529.5 189.7 515.3 188.5 520.5C187 527 221 548.5 229 558C236.903 567.385 257.006 583.114 273.882 583.975" stroke="black" stroke-width="4"/>
<path d="M741.5 654.5C742.797 651.923 733.333 635.667 730 627C711.6 640.6 687.667 647.333 678 649C689 688 719.5 754.5 734.5 754.5C775.233 754.5 809.167 635.5 823.5 578C831 577 841 578 850.5 572C870.118 559.61 891.667 564 900.5 568.5C900.9 552.1 879.333 542.667 868.5 540C882.5 546.167 905.5 554.8 885.5 540C860.5 521.5 849 538.5 832 535C818.4 532.2 828.667 509.167 835.5 498C811.9 499.2 801.667 543.5 799.5 565.5C785.5 575.1 754.5 628.667 741.5 654.5ZM741.5 654.5C739.99 657.5 734 669 730 677" stroke="black" stroke-width="4"/>
<path d="M545.5 466.5C564.192 474.085 578.664 476.13 590 474.234M590 474.234C620.51 469.132 628.303 435.487 634.5 404.5C669 401.5 650.5 341.5 630 375.5C636.5 351.5 618 319.52 584.5 315.5C514.5 307.1 496.333 356 496 381.5C451.5 364 464 418.5 496 416.5C499.5 436 516.667 489.333 519.5 514.5C540 527 590 516 586.5 506.5C583.7 498.9 587.667 481.823 590 474.234Z" stroke="black" stroke-width="4" stroke-linecap="round" stroke-linejoin="round"/>
<path d="M508 387C497 380 479.5 372 471 378.5C472.6 296.5 556 248.5 590 298C654 286 646.5 378.5 633 370C626.758 366.07 614 333 587.5 315.5C585.667 317.5 571.2 323 528 329C513 331.083 502.5 367 508 387Z" fill="black" stroke="black" stroke-width="4" stroke-linejoin="round"/>
<path d="M485 450C472.6 448.4 472.167 421.333 473.5 408C483.1 416.4 492.167 417.167 495.5 416.5L503.5 447.5C502.5 449 497.4 451.6 485 450Z" fill="black" stroke="black" stroke-width="4"/>
<path d="M519 515C420.2 517.4 394.833 597.667 394.5 637.5C428.9 666.3 450.167 665.5 456.5 661.5C452.1 688.7 458.333 762.833 462 796.5H691.5C693.1 767.7 682.167 686.5 676.5 649.5C713.7 647.1 739 619.5 747 606C705.8 518.4 624.167 503.167 588.5 506.5C560.9 521.3 530.667 518.333 519 515Z" fill="#ED9A39"/>
<path d="M676.5 649.5C713.7 647.1 739 619.5 747 606C705.8 518.4 624.167 503.167 588.5 506.5C560.9 521.3 530.667 518.333 519 515C420.2 517.4 394.833 597.667 394.5 637.5C428.9 666.3 450.167 665.5 456.5 661.5M676.5 649.5C682.167 686.5 693.1 767.7 691.5 796.5H462C458.333 762.833 452.1 688.7 456.5 661.5M676.5 649.5C671.5 636 659.6 606.4 652 596M456.5 661.5C458.167 649.333 462.3 621.2 465.5 606" stroke="black" stroke-width="4"/>
<path fill-rule="evenodd" clip-rule="evenodd" d="M411.822 239.105C410.544 239.336 408.822 240.586 408.822 241.282C408.822 241.496 409.553 241.455 410.447 241.193C414.527 239.994 420.938 242.758 426.106 247.944C430.366 252.219 432.072 255.424 432.072 259.153C432.072 261.594 431.914 261.961 430.19 263.541C428.349 265.228 428.239 265.259 425.16 264.944C422.578 264.679 421.86 264.773 421.167 265.466C419.346 267.287 420.504 268.312 424.827 268.708C428.622 269.056 429.526 269.638 430.154 272.139C430.548 273.709 428.789 278.1 426.255 281.87C423.432 286.07 417.222 292.152 413.697 294.169C412.115 295.073 410.822 295.906 410.822 296.019C410.822 296.345 415.823 294.292 418.572 292.838C419.947 292.111 423.005 289.597 425.367 287.253C428.772 283.874 430.102 282.109 431.785 278.74C434.199 273.908 434.326 271.555 432.327 268.747L431.199 267.164L432.701 265.577C434.883 263.27 435.465 261.864 435.465 258.895C435.465 251.867 427.484 242.764 418.969 240.079C416.034 239.153 413.48 238.805 411.822 239.105ZM506.548 260.148C506.01 260.534 504.789 263.663 502.948 269.374L501.695 273.258L499.28 270.999C497.399 269.24 496.5 268.746 495.218 268.766L493.572 268.792L494.822 269.617C496.231 270.547 500.322 274.704 500.322 275.205C500.322 275.385 499.33 275.797 498.119 276.122C495.223 276.896 490.092 279.177 490.447 279.531C490.6 279.685 492.665 279.425 495.036 278.954C497.407 278.483 499.466 278.217 499.612 278.364C499.758 278.51 499.528 279.98 499.1 281.632C498.672 283.283 498.339 285.052 498.359 285.562C498.399 286.554 501.822 279.943 501.822 278.875C501.822 277.811 502.868 278.163 504 279.608C507.157 283.639 509.947 286.781 510.172 286.557C510.311 286.417 509.206 284.432 507.716 282.146C506.226 279.86 504.956 277.769 504.893 277.499C504.83 277.228 507.882 276.436 511.675 275.738C516.857 274.784 518.572 274.285 518.572 273.729C518.572 272.565 513.682 272.545 508.553 273.688C506.102 274.234 503.997 274.582 503.876 274.461C503.755 274.339 504.593 271.866 505.739 268.965C507.695 264.011 508.336 260.617 507.423 260.052C507.203 259.917 506.81 259.96 506.548 260.148ZM703.749 295.95C703.062 297.458 703.065 297.458 700.385 296.512C698.011 295.675 697.7 295.877 699.697 296.959C702.511 298.482 702.498 298.214 700.032 303.776C698.761 306.644 697.515 309.377 697.262 309.85C696.846 310.629 696.484 310.536 693.437 308.873C689.714 306.842 689.994 307.808 693.852 310.308C695.643 311.468 696.161 312.07 695.909 312.699C695.723 313.161 693.816 317.015 691.67 321.264L687.769 328.99L689.92 326.694C691.104 325.432 693.241 322.394 694.67 319.944C698.614 313.184 698.343 313.46 700.093 314.405C703.043 315.997 703.032 315.979 702.026 317.683C701.52 318.539 700.93 319.24 700.714 319.24C700.498 319.24 700.322 319.465 700.322 319.74C700.322 320.685 701.527 320.237 703.107 318.705L704.69 317.171L709.131 319.721C711.573 321.124 714.022 322.208 714.572 322.13C715.787 321.96 715.725 321.085 714.474 320.74C713.975 320.602 711.728 319.388 709.481 318.041L705.396 315.593L706.791 313.041C707.558 311.638 708.829 308.971 709.615 307.115C710.401 305.259 711.288 303.74 711.585 303.74C712.243 303.74 720.483 308.906 722.572 310.627C723.397 311.307 724.345 312.342 724.679 312.927C725.28 313.979 725.286 313.977 725.304 312.765C725.329 311.024 721.377 307.482 716.111 304.526C713.732 303.191 711.892 301.849 712.021 301.544C713.994 296.903 713.105 294.635 711.028 299.011C710.069 301.033 709.914 301.062 707.283 299.72C705.448 298.784 705.295 298.551 705.428 296.897C705.603 294.699 704.581 294.123 703.749 295.95ZM708.772 302.49C708.953 303.597 704.092 314.24 703.405 314.24C702.767 314.24 699.322 312.366 699.322 312.019C699.322 311.943 700.082 310.218 701.011 308.185C701.94 306.153 703.172 303.405 703.749 302.079L704.797 299.668L706.743 300.829C707.814 301.467 708.727 302.215 708.772 302.49ZM332.322 313.325C332.322 313.647 332.672 314.299 333.101 314.772C333.808 315.553 333.8 315.907 333.021 318.562C332.247 321.199 331.989 329.071 332.475 335.207C332.555 336.215 332.053 336.714 329.572 338.096C326.096 340.032 323.322 342.771 323.322 344.265C323.322 346.222 324.254 347.042 328.911 349.181C331.474 350.358 333.909 351.492 334.322 351.7C334.734 351.908 336.309 354.903 337.822 358.355C340.989 365.584 341.922 367.113 343.544 367.729C346.398 368.814 347.676 367.244 350.052 359.74C351.672 354.621 351.899 351.603 350.752 350.456C349.561 349.265 347.898 349.912 348.192 351.452C348.471 352.908 344.938 362.74 344.136 362.74C343.821 362.74 343.31 362.346 343.002 361.865C342.694 361.384 341.035 358.74 339.316 355.99C336.047 350.761 333.707 347.91 332.679 347.902C331.457 347.892 326.873 344.688 327.129 344.022C327.505 343.04 331.077 340.291 333.043 339.47C335.3 338.526 335.49 338.128 335.388 334.539C335.291 331.101 336.137 319.258 336.506 318.889C336.767 318.627 345.965 326.575 346.238 327.298C346.33 327.541 346.116 327.74 345.763 327.74C345.285 327.74 345.266 327.884 345.688 328.306C346.552 329.17 347.822 328.422 347.822 327.05C347.822 324.893 341.193 317.786 335.495 313.834C333.77 312.638 332.322 312.406 332.322 313.325ZM357.692 323.436C351.402 326.198 346.23 330.848 347.753 332.371C348.14 332.758 348.602 332.519 349.383 331.526C350.034 330.697 353.107 328.841 357.022 326.909C361.562 324.67 363.572 323.42 363.572 322.834C363.572 321.449 361.804 321.63 357.692 323.436ZM364.502 324.661C364.239 324.842 363.994 325.473 363.958 326.064C363.921 326.654 362.898 329.692 361.683 332.814C358.636 340.643 358.61 340.796 360.038 342.801C362.586 346.377 367.436 354.793 367.127 355.101C366.948 355.28 364.053 354.725 360.693 353.869C357.332 353.012 354.489 352.405 354.375 352.52C354.261 352.634 355.271 353.203 356.619 353.784C357.968 354.364 360.649 355.575 362.576 356.473C364.504 357.372 366.797 358.265 367.672 358.457C370.892 359.164 372.248 356.981 370.586 353.767C369.576 351.814 365.563 345.945 363.467 343.356L361.74 341.222L363.493 337.106C365.777 331.746 366.985 327.46 366.622 326.01C366.311 324.772 365.289 324.121 364.502 324.661ZM763.588 384.071C758.842 385.527 754.855 389.516 753.027 394.638C752.113 397.198 752.15 402.858 753.095 405.131C754.659 408.886 758.505 411.014 763.049 410.637C766.269 410.37 768.424 408.932 769.659 406.225C770.404 404.591 770.755 404.286 771.572 404.561C773.655 405.262 776.418 404.967 777.171 403.963C778.308 402.448 777.761 398.749 776.074 396.537C773.131 392.678 767.771 390.966 766.1 393.351C765.672 393.962 765.34 395.031 765.363 395.726C765.402 396.947 765.427 396.937 766.088 395.428C766.998 393.354 768.002 393.055 770.226 394.196C772.514 395.369 774.053 396.986 774.979 399.189C776.504 402.815 774.254 403.967 771.084 401.183C768.979 399.335 768.114 399.709 767.64 402.674C766.804 407.907 760.989 409.775 756.961 406.105C753.258 402.73 754.707 393.578 759.628 389.257C762.343 386.873 764.56 386.096 768.572 386.118C778.833 386.177 788.115 395.388 784.655 402.079C782.964 405.348 778.235 408.484 772.072 410.422C767.431 411.881 758.626 413.733 756.226 413.755C754.709 413.769 754.655 413.821 755.572 414.38C756.206 414.767 758.583 414.981 762.072 414.965C776.884 414.899 788.822 407.803 788.822 399.065C788.822 393.147 782.703 386.787 774.601 384.285C770.664 383.069 767.082 383 763.588 384.071ZM324.735 429.2C322.191 430.024 319.55 431.8 318.423 433.444C316.9 435.667 316.524 439.382 317.538 442.193C317.975 443.404 318.274 444.44 318.202 444.494C318.13 444.549 316.609 444.864 314.822 445.195C310.767 445.945 306.681 447.867 305.585 449.539C304.784 450.763 304.788 450.793 305.705 450.302C307.145 449.532 316.421 447.74 318.971 447.74C320.204 447.74 322.193 448.185 323.392 448.729C327.28 450.493 330.115 449.794 329.735 447.165C329.608 446.283 329.022 445.881 327.072 445.332C322.865 444.149 322.487 443.897 321.325 441.497C319.781 438.306 320.169 436.023 322.623 433.874C323.637 432.985 325.244 432.112 326.192 431.934C329.245 431.361 333.926 432.022 336.672 433.414C339.683 434.94 340.916 436.441 340.504 438.082C340.189 439.336 340.763 439.599 341.722 438.64C342.653 437.708 342.43 435.012 341.303 433.579C340.742 432.867 338.815 431.561 337.02 430.677C334.368 429.371 333.038 429.042 329.914 428.919C327.801 428.835 325.47 428.962 324.735 429.2Z" fill="black"/>
</svg>
