<svg viewBox="0 0 83.8 88.55" xmlns="http://www.w3.org/2000/svg" id="图层_20"><defs><style>.cls-1{fill:#231815;}.cls-2{fill:#d3ecf1;}.cls-3{fill:#f0a9a0;}.cls-4{fill:#91d0c5;}.cls-5{fill:#d8ede9;}.cls-6{fill:#eee68c;}.cls-7{fill:#f9e3c6;}.cls-8{fill:#dedeef;}.cls-9{fill:#564d47;}.cls-10{fill:#e9c798;}.cls-11,.cls-12{fill:none;stroke:#231815;stroke-miterlimit:10;}.cls-11{stroke-width:0.75px;}.cls-12{stroke-width:2px;}</style></defs><title>乐队</title><path transform="translate(-127.05 -15.91)" d="M142.49,100.58a5.72,5.72,0,0,0,0,1.24c0,.23.29.34.5.34a.61.61,0,0,0,.35-.09.29.29,0,0,0,.15-.24,5.72,5.72,0,0,1,0-1.24.28.28,0,0,0-.15-.23.61.61,0,0,0-.35-.11c-.21,0-.47.09-.5.33Z" class="cls-1"></path><path transform="translate(-127.05 -15.91)" d="M144.37,100.65a9.45,9.45,0,0,1-.1,1.07.25.25,0,0,0,.12.24.59.59,0,0,0,.34.13.63.63,0,0,0,.36,0,.3.3,0,0,0,.17-.21,9.45,9.45,0,0,0,.1-1.07c0-.23-.26-.35-.46-.37a.64.64,0,0,0-.36,0c-.08,0-.17.1-.17.2Z" class="cls-1"></path><path transform="translate(-127.05 -15.91)" d="M167.92,88.55a41.4,41.4,0,0,0,6.26-1c1-.21,2-.4,3-.52s2.26-.38,3.1.26l.65-.7-.42-.17c-.43-.16-1.09.55-.56.76l.42.16c.34.13,1.07-.39.65-.7a3.64,3.64,0,0,0-2.56-.52,27.21,27.21,0,0,0-3.48.48,48.16,48.16,0,0,1-7,1.13c-.51,0-.77.84-.12.81Z" class="cls-2"></path><path transform="translate(-127.05 -15.91)" d="M137.13,99a11.76,11.76,0,0,0,2.54,1.84.75.75,0,0,0,.62-.08c.06,0,.43-.26.25-.35A12.06,12.06,0,0,1,138,98.61c-.22-.19-1.09.23-.87.42Z" class="cls-2"></path><path transform="translate(-127.05 -15.91)" d="M136.2,98.22a.34.34,0,0,1,.14,0l0,0,.09.08a0,0,0,0,0,.06,0,.22.22,0,0,0,.11,0l.15,0,.18-.09.11-.07a1,1,0,0,0,.18-.13l.05-.06a.09.09,0,0,0,0-.09.35.35,0,0,0-.13-.11l-.12,0h-.1a.58.58,0,0,0-.14,0l-.17.08-.18.1-.09.07a.44.44,0,0,0-.14.13l0,0a0,0,0,0,0,0,.06Z" class="cls-2"></path><path transform="translate(-127.05 -15.91)" d="M158.16,92.53a5.46,5.46,0,0,0,3.15-1.36.29.29,0,0,0-.05-.49.66.66,0,0,0-.67.21l-.05.06h0l-.15.12-.13.1,0,0,0,0-.31.16-.08,0s.06,0,0,0l-.18.06c-.22.08-.45.14-.68.2l-.16,0s-.05,0,0,0l-.08,0-.38.07a.66.66,0,0,0-.55.43.3.3,0,0,0,.38.32Z" class="cls-3"></path><path transform="translate(-127.05 -15.91)" d="M208,98.54l.88,3.59-56.9-.58c1.42-.91,2.84-2,4.2-3Z" class="cls-4"></path><path transform="translate(-127.05 -15.91)" d="M159.64,96h36.23v-.34l-.15-3.79h.15L195.4,86V83.26H205L208,98.54H156.22C157.42,97.63,158.57,96.74,159.64,96Z" class="cls-5"></path><path transform="translate(-127.05 -15.91)" d="M165.83,81.5l-4.83,2,0,0-1.34-3.08,5-2,12.51-5.15,5.5-2.27L194,66.19l2-.85,1.41,3.29-2.07.84-5.24,2.14h0l-2.38,1-10.41,4.24Z" class="cls-5"></path><polygon points="68.81 79.74 68.81 80.08 63.44 80.08 63.44 79.91 63.3 76.11 63.44 76.11 62.97 70.29 62.97 67.36 68.35 67.36 68.35 70.12 68.81 75.95 68.67 75.95 68.81 79.74" class="cls-5"></polygon><path transform="translate(-127.05 -15.91)" d="M196,65.34l-2,.85-.15-.36s-.71-1.4,1.41-3,4.1.64,5.9,1,5.21-2.51,5.71-.49-3.05,6.08-5.61,6.83-5.87-.67-5.87-.67l2.07-.84Z" class="cls-4"></path><polygon points="63.44 79.91 63.44 80.08 58.6 80.08 58.6 80.04 58.47 76.25 58.6 76.25 58.14 70.43 58.14 67.36 62.97 67.36 62.97 70.29 63.44 76.11 63.3 76.11 63.44 79.91" class="cls-5"></polygon><path transform="translate(-127.05 -15.91)" d="M188.07,76.68a1.09,1.09,0,1,1,0-2.17,1.08,1.08,0,0,1,1.08,1.08,1.1,1.1,0,0,1-.66,1A1.16,1.16,0,0,1,188.07,76.68Z" class="cls-6"></path><path transform="translate(-127.05 -15.91)" d="M195.08,76.2a23.78,23.78,0,0,1-5.44.43l-1.15,0a1.1,1.1,0,0,0,.66-1,1.08,1.08,0,0,0-1.08-1.08v-.4a.69.69,0,0,0,.69-.7.68.68,0,0,0-.69-.68.87.87,0,0,0-.28,0l-.07-.19,2.38-1h0c.48-.13,6.3-1.72,7.31-.09S196.6,75.68,195.08,76.2Z" class="cls-7"></path><path transform="translate(-127.05 -15.91)" d="M187.37,73.41a.69.69,0,0,1,.42-.63.87.87,0,0,1,.28,0,.68.68,0,0,1,.69.68.7.7,0,1,1-1.39,0Z" class="cls-6"></path><path transform="translate(-127.05 -15.91)" d="M188.07,74.51a1.09,1.09,0,1,0,0,2.17,1.16,1.16,0,0,0,.42-.08l1.15,0c-.24.26-3.19,4-5,5.26a5.37,5.37,0,0,1-3.09,1,5.56,5.56,0,0,1-3.32-1.12c-2-1.51-.91-4.91-.91-4.91l10.41-4.24.07.19a.69.69,0,0,0,.28,1.33Z" class="cls-7"></path><path transform="translate(-127.05 -15.91)" d="M163.71,71.43c-3.62,1.39-6.65,3.64-9.06,4.15a49.62,49.62,0,0,0,11.93-7.74,44.17,44.17,0,0,0,7.91-11h0a2.44,2.44,0,0,0,2.17,2.32,3.35,3.35,0,0,0,3.19-1.5,3.55,3.55,0,0,0,2.77-.36l.14.18a10.63,10.63,0,0,1,1.5,5.16,1.35,1.35,0,0,1-.56,1.08c-1.8,1.44-7.37.74-7.37.74s-.73,1.56.12,2.13a2.26,2.26,0,0,0,.61.2l-.06.36v5.74l.11.28-12.51,5.15-.06-.17s0-.5,2.43-3,6.55-4.29,5.65-5.68S167.33,70,163.71,71.43Z" class="cls-8"></path><path transform="translate(-127.05 -15.91)" d="M182.32,66.58a17.38,17.38,0,0,1-5.25.2,2.26,2.26,0,0,1-.61-.2c-.85-.57-.12-2.13-.12-2.13s5.57.7,7.37-.74c0,0,.3,1.83-.44,2.5A2.37,2.37,0,0,1,182.32,66.58Z" class="cls-8"></path><path transform="translate(-127.05 -15.91)" d="M182.62,70.89l-5.5,2.27-.11-.28V67.14l.06-.36a17.38,17.38,0,0,0,5.25-.2Z" class="cls-7"></path><path transform="translate(-127.05 -15.91)" d="M185.66,96h-26a19.09,19.09,0,0,1,2.17-1.36,11.93,11.93,0,0,1,3.2-1c4.59-.84,10.55-.42,10.45-2.18-.12-2.22-4.19-3.48-6.6-5.2a7.7,7.7,0,0,1-2.4-3h18.73v3.08l.47,5.82h-.13l.13,3.79Z" class="cls-5"></path><path transform="translate(-127.05 -15.91)" d="M164.78,28l.26-1.16a2.59,2.59,0,0,1,.4.09c12.75,3.3,9.8,13.7,9.5,14.65v.19a7.73,7.73,0,0,0-1.15.2s-2.94-1.07-5.48-5.41A35.13,35.13,0,0,1,164.78,28Z" class="cls-9"></path><path transform="translate(-127.05 -15.91)" d="M174.05,44.36a1.51,1.51,0,0,1-1,1c-.38.13-.74.15-.78.19s-1-.25-.64-1.44a4.92,4.92,0,0,1,2-2.09A3.39,3.39,0,0,1,174.05,44.36Z" class="cls-9"></path><path transform="translate(-127.05 -15.91)" d="M174.91,47.16a1.14,1.14,0,0,1,0,.25,1.38,1.38,0,0,1-1.28,1.12.93.93,0,0,1-.33,0,1.37,1.37,0,0,1-1.1-1.61,1.35,1.35,0,0,1,1-1.08,1.07,1.07,0,0,1,.59,0A1.37,1.37,0,0,1,174.91,47.16Z" class="cls-4"></path><path transform="translate(-127.05 -15.91)" d="M173.07,45.34a1.51,1.51,0,0,0,1-1A3.39,3.39,0,0,0,173.7,42l.1,0a7.73,7.73,0,0,1,1.15-.2,7.85,7.85,0,0,1,1.69,0,3.56,3.56,0,0,1,3.4,2.34,3.34,3.34,0,0,1,0,2,2.42,2.42,0,0,1-1.73,1.7,6.3,6.3,0,0,1-3.41-.61h0a1.37,1.37,0,0,0-1.13-1.35,1.07,1.07,0,0,0-.59,0Z" class="cls-7"></path><path transform="translate(-127.05 -15.91)" d="M167.63,54c.7-.34,1.32-.71,2-1.12a14.09,14.09,0,0,0,4-4.25v0a1.38,1.38,0,0,0,1.28-1.12,1.14,1.14,0,0,0,0-.25h0a6.3,6.3,0,0,0,3.41.61,2.42,2.42,0,0,0,1.73-1.7l.42.1c-1.2,3.81-3.27,6.43-2.32,7.16a3.71,3.71,0,0,0,3.31.22,5.31,5.31,0,0,0,2-2.09s1.16,3.55-.45,5.47a2.16,2.16,0,0,1-.39.36,3.55,3.55,0,0,1-2.77.36,3.35,3.35,0,0,1-3.19,1.5,2.44,2.44,0,0,1-2.17-2.32,5,5,0,0,1-.1-1,4.1,4.1,0,0,1-1.63,1.4,4.68,4.68,0,0,1-3.15.06l-.09,0c-1.21-.53-1.71-2.29-1.88-3,0-.16,0-.26-.05-.3h0Z" class="cls-9"></path><path transform="translate(-127.05 -15.91)" d="M167.13,24.05a8,8,0,0,1,4.25-.5c1.54.28,5.83,2.89,8.12,8.08a21.31,21.31,0,0,1,1.73,11.16,15.45,15.45,0,0,1-.73,3.38l-.42-.1a3.34,3.34,0,0,0,0-2,3.56,3.56,0,0,0-3.4-2.34l0-.24a11.93,11.93,0,0,0,.77-6.56,11.87,11.87,0,0,0-7.91-8.57,23.43,23.43,0,0,0-3.49-.82l.15-1.05A7.63,7.63,0,0,1,167.13,24.05Z" class="cls-9"></path><path transform="translate(-127.05 -15.91)" d="M169.62,57.3a4.68,4.68,0,0,0,3.15-.06,4.1,4.1,0,0,0,1.63-1.4,5,5,0,0,0,.1,1h0a44.17,44.17,0,0,1-7.91,11,49.62,49.62,0,0,1-11.93,7.74,103.73,103.73,0,0,0,8.8-9.77c3.13-4,5.92-8.23,5.92-8.23l.16-.33Z" class="cls-10"></path><path transform="translate(-127.05 -15.91)" d="M169.53,26.36a11.87,11.87,0,0,1,7.91,8.57,11.93,11.93,0,0,1-.77,6.56l0,.24a7.85,7.85,0,0,0-1.69,0v-.19c.3-1,3.25-11.35-9.5-14.65a2.59,2.59,0,0,0-.4-.09,14,14,0,0,0-8.71.41c.06,0,3.44-2.6,9.71-1.69A23.43,23.43,0,0,1,169.53,26.36Z" class="cls-4"></path><path transform="translate(-127.05 -15.91)" d="M160.75,58.45c4.72,1,6.85-4.18,6.85-4.18h.05c.17.7.67,2.46,1.88,3l-.16.33s-2.79,4.23-5.92,8.23a103.73,103.73,0,0,1-8.8,9.77h0a17.12,17.12,0,0,1-4.41.35,35.21,35.21,0,0,1-1.57-8.8,9.48,9.48,0,0,0,2.9-.23c.95-.58.14-2.26.14-2.26-1.75.9-10.61.48-12.87-.73s-.49-7.22,1.25-9.94a13.74,13.74,0,0,1,4.24-4.16l0-.17a6.09,6.09,0,0,0,2.85-.18s-.12,1.08,2.05,2a3.84,3.84,0,0,0,3.43.16A14.08,14.08,0,0,0,156,53.56S156,57.47,160.75,58.45Z" class="cls-8"></path><path transform="translate(-127.05 -15.91)" d="M167.6,54.27s-2.13,5.15-6.85,4.18S156,53.56,156,53.56a17.23,17.23,0,0,0,4.2,1.12c3.83.41,5.79,0,7.38-.72,0,0,0,.14.05.3Z" class="cls-7"></path><path transform="translate(-127.05 -15.91)" d="M166.46,83.26a10.9,10.9,0,0,1-.63-1.76l11.48-4.67s-1.11,3.4.91,4.91a5.56,5.56,0,0,0,3.32,1.12v.4Z" class="cls-8"></path><path transform="translate(-127.05 -15.91)" d="M153.21,89.83c1.87,2,8.87,3.26,11.45,1.93l.35,1.9a11.93,11.93,0,0,0-3.2,1A19.09,19.09,0,0,0,159.64,96c-1.07.75-2.22,1.64-3.42,2.55-1.36,1-2.78,2.1-4.2,3-2.45,1.57-4.9,2.71-7,2.52-5.32-.48-10.57-5.18-12.43-10.48s-.69-16,1.16-18.83,8.74-.34,8.74-.34h0a27.61,27.61,0,0,0,1.95,5.27A28.91,28.91,0,0,0,151,87.81a1.11,1.11,0,0,0,0,.19,1,1,0,0,0,1,1,.82.82,0,0,0,.28,0C152.68,89.34,153,89.65,153.21,89.83Z" class="cls-4"></path><path transform="translate(-127.05 -15.91)" d="M165.36,86c-1.71-.79-5.14-.24-5.14-.24s1.12-1.28.59-2.28l.17-.08,0,0,4.83-2a10.9,10.9,0,0,0,.63,1.76,7.7,7.7,0,0,0,2.4,3c2.41,1.72,6.48,3,6.6,5.2.1,1.76-5.86,1.34-10.45,2.18l-.35-1.9a1.92,1.92,0,0,0,.28-.18C167.23,90,167.08,86.83,165.36,86Z" class="cls-4"></path><path transform="translate(-127.05 -15.91)" d="M160.81,83.51a1.44,1.44,0,0,0-.51-.54c-1.52-1-4.28,1-4.28,1s-.2-.22-.52-.61a56.73,56.73,0,0,1-4.5-5.83,8,8,0,0,1-.78-1.58,17.12,17.12,0,0,0,4.41-.35h0c2.41-.51,5.44-2.76,9.06-4.15s8-3.41,8.92-2-3.23,3.16-5.65,5.68-2.43,3-2.43,3l.06.17-5,2L161,83.43Z" class="cls-4"></path><path transform="translate(-127.05 -15.91)" d="M155.29,83.54a1,1,0,0,1,.28.66,1,1,0,0,1-1,1,.94.94,0,0,1-.78-.42.91.91,0,0,1-.17-.54,1,1,0,0,1,1-.94A1,1,0,0,1,155.29,83.54Z" class="cls-6"></path><path transform="translate(-127.05 -15.91)" d="M155.5,83.35c.32.39.52.61.52.61s2.76-2,4.28-1a1.44,1.44,0,0,1,.51.54c.53,1-.59,2.28-.59,2.28s3.43-.55,5.14.24,1.87,4-.42,5.55a1.92,1.92,0,0,1-.28.18c-2.58,1.33-9.58,0-11.45-1.93-.19-.18-.53-.49-1-.89a1,1,0,0,0,.42-1.65,1.12,1.12,0,1,0,.51-2.13l.69-.42a.94.94,0,0,0,.78.42,1,1,0,0,0,1-1,1,1,0,0,0-.28-.66Z" class="cls-7"></path><path transform="translate(-127.05 -15.91)" d="M153.14,85.16a1.13,1.13,0,1,1-.51,2.13l0,0a.5.5,0,0,0-.19-.13,1.13,1.13,0,0,1,.73-2Z" class="cls-6"></path><path transform="translate(-127.05 -15.91)" d="M152.63,87.29a1,1,0,0,1-.42,1.65L151,87.81a1,1,0,0,1,1-.81.9.9,0,0,1,.48.14,1.07,1.07,0,0,0,.19.13Z" class="cls-6"></path><path transform="translate(-127.05 -15.91)" d="M171.65,44.09c-.4,1.19.55,1.53.64,1.44s.4-.06.78-.19l.12.49a1.35,1.35,0,0,0-1,1.08,1.37,1.37,0,0,0,1.1,1.61.93.93,0,0,0,.33,0v0a14.09,14.09,0,0,1-4,4.25c-.68.41-1.3.78-2,1.12h0c-1.59.73-3.55,1.13-7.38.72a17.23,17.23,0,0,1-4.2-1.12,14.08,14.08,0,0,1-3.35-1.91,8.78,8.78,0,0,1-1.75-1.85,18.51,18.51,0,0,1-2.61-8c-.06-.47-.07-.76-.07-.76a1.08,1.08,0,0,0,.28-.15c1.07-.66.17-4.23.17-4.23a39.78,39.78,0,0,0,7.85-3.35c3.7-2.29,8.24-5.32,8.24-5.32a35.13,35.13,0,0,0,3.54,8.56c2.54,4.34,5.48,5.41,5.48,5.41l-.1,0A4.92,4.92,0,0,0,171.65,44.09Z" class="cls-7"></path><path transform="translate(-127.05 -15.91)" d="M152.21,88.94a.82.82,0,0,1-.28,0,1,1,0,0,1-1-1,1.11,1.11,0,0,1,0-.19Z" class="cls-6"></path><path transform="translate(-127.05 -15.91)" d="M151,87.81a28.91,28.91,0,0,1-6.54-8.12,27.61,27.61,0,0,1-1.95-5.27,40.71,40.71,0,0,1-1.29-7.84,57.79,57.79,0,0,0,7.48.56,35.21,35.21,0,0,0,1.57,8.8,8,8,0,0,0,.78,1.58,56.73,56.73,0,0,0,4.5,5.83l-.21.19a1,1,0,0,0-.68-.28,1,1,0,0,0-1,.94.91.91,0,0,0,.17.54l-.69.42a1.13,1.13,0,0,0-.73,2,.9.9,0,0,0-.48-.14A1,1,0,0,0,151,87.81Z" class="cls-7"></path><path transform="translate(-127.05 -15.91)" d="M148.22,36.28c.38-1.1,2.59-6.81,8.11-9a14,14,0,0,1,8.71-.41L164.78,28s-4.54,3-8.24,5.32a39.78,39.78,0,0,1-7.85,3.35l-.79-.1.29-.28Z" class="cls-9"></path><path transform="translate(-127.05 -15.91)" d="M148.69,36.65s.9,3.57-.17,4.23a1.08,1.08,0,0,1-.28.15c-1,.44-2,0-1.92-1.51a5.12,5.12,0,0,1,1.58-3Z" class="cls-9"></path><path transform="translate(-127.05 -15.91)" d="M166,25.54c-6.27-.91-9.65,1.65-9.71,1.69-5.52,2.24-7.73,8-8.11,9.05h0a1.89,1.89,0,0,0-1.52-.8v-.36A17.86,17.86,0,0,1,150.82,27c2.51-2.61,7.43-4.11,8.57-4.27a15,15,0,0,1,7.74,1.36,7.63,7.63,0,0,0-.94.44Z" class="cls-9"></path><path transform="translate(-127.05 -15.91)" d="M147.28,42.28a.93.93,0,0,1-.33,1.83A.94.94,0,0,1,146.2,43,.92.92,0,0,1,147.28,42.28Z" class="cls-4"></path><path transform="translate(-127.05 -15.91)" d="M146.32,39.52c0,1.51.93,1.95,1.92,1.51,0,0,0,.29.07.76l-.29,0a2.75,2.75,0,0,1-2.57.1,4.59,4.59,0,0,1-.48-.26c-1.67-1.09-.82-5.32.8-6a2.31,2.31,0,0,1,.9-.19,1.89,1.89,0,0,1,1.52.8l-.29.28A5.12,5.12,0,0,0,146.32,39.52Z" class="cls-7"></path><path transform="translate(-127.05 -15.91)" d="M148,43.36A.93.93,0,0,0,146.2,43a.94.94,0,0,0,.75,1.09A.92.92,0,0,0,148,43.36ZM141.17,42s-.68,2.12,1.47,2a3.18,3.18,0,0,0,2.77-2l0-.08a2.75,2.75,0,0,0,2.57-.1l.29,0a18.51,18.51,0,0,0,2.61,8,8.78,8.78,0,0,0,1.75,1.85,3.84,3.84,0,0,1-3.43-.16c-2.17-.94-2.05-2-2.05-2a6.09,6.09,0,0,1-2.85.18,5.2,5.2,0,0,1-2.65-1.24C139.22,46.25,141.17,42,141.17,42Z" class="cls-9"></path><path transform="translate(-127.05 -15.91)" d="M138.82,63.92c2.26,1.21,11.12,1.63,12.87.73,0,0,.81,1.68-.14,2.26a9.48,9.48,0,0,1-2.9.23,57.79,57.79,0,0,1-7.48-.56,5.21,5.21,0,0,1-1.82-.51A1.67,1.67,0,0,1,138.82,63.92Z" class="cls-8"></path><path transform="translate(-127.05 -15.91)" d="M155.28,40.39a6.45,6.45,0,0,0,1.48-.57c.28-.15.44-.26.44-.26" class="cls-11"></path><path transform="translate(-127.05 -15.91)" d="M151.68,38.54a3.33,3.33,0,0,0,1.95,1.77,2.87,2.87,0,0,0,1.64.08" class="cls-11"></path><line y2="23.39" x2="24.81" y1="23.96" x1="23.94" class="cls-11"></line><line y2="24.36" x2="26.16" y1="24.93" x1="25.75" class="cls-11"></line><polyline points="28.6 25.13 28.22 24.48 28.21 24.48 28.21 24.47" class="cls-11"></polyline><polyline points="30.55 24.8 29.7 23.91 29.69 23.9" class="cls-11"></polyline><path transform="translate(-127.05 -15.91)" d="M163.71,40.36s.36,1.17,2.32,1.53a2.75,2.75,0,0,0,2.05-.34,2.35,2.35,0,0,0,.73-.69" class="cls-11"></path><line y2="25.22" x2="36.85" y1="25.8" x1="35.98" class="cls-11"></line><line y2="25.78" x2="37.86" y1="26.62" x1="37.49" class="cls-11"></line><line y2="26.09" x2="39.53" y1="26.84" x1="39.57" class="cls-11"></line><line y2="25.64" x2="41.03" y1="26.24" x1="41.74" class="cls-11"></line><line y2="28.13" x2="30.91" y1="30.43" x1="32.01" class="cls-11"></line><path transform="translate(-127.05 -15.91)" d="M173.8,42a7.73,7.73,0,0,1,1.15-.2,7.85,7.85,0,0,1,1.69,0,3.56,3.56,0,0,1,3.4,2.34,3.34,3.34,0,0,1,0,2,2.42,2.42,0,0,1-1.73,1.7,6.3,6.3,0,0,1-3.41-.61" class="cls-11"></path><path transform="translate(-127.05 -15.91)" d="M174.7,44.36s.25-.59,1.62-.79a2.22,2.22,0,0,1,1.9.34" class="cls-11"></path><path transform="translate(-127.05 -15.91)" d="M175.37,44.78c.06,0,.43.71.89.93a1.46,1.46,0,0,0,1.05,0" class="cls-11"></path><path transform="translate(-127.05 -15.91)" d="M174.91,47.16a1.14,1.14,0,0,1,0,.25,1.38,1.38,0,0,1-1.28,1.12.93.93,0,0,1-.33,0,1.37,1.37,0,0,1-1.1-1.61,1.35,1.35,0,0,1,1-1.08,1.07,1.07,0,0,1,.59,0A1.37,1.37,0,0,1,174.91,47.16Z" class="cls-11"></path><line y2="33.97" x2="34.38" y1="33.66" x1="30.65" class="cls-11"></line><path transform="translate(-127.05 -15.91)" d="M167.63,54c.7-.34,1.32-.71,2-1.12a14.09,14.09,0,0,0,4-4.25" class="cls-11"></path><path transform="translate(-127.05 -15.91)" d="M148.24,41s0,.29.07.76a18.51,18.51,0,0,0,2.61,8,8.78,8.78,0,0,0,1.75,1.85A14.08,14.08,0,0,0,156,53.56a17.23,17.23,0,0,0,4.2,1.12c3.83.41,5.79,0,7.38-.72h0" class="cls-11"></path><path transform="translate(-127.05 -15.91)" d="M174.92,41.63l0-.07c.3-1,3.25-11.35-9.5-14.65a2.59,2.59,0,0,0-.4-.09,14,14,0,0,0-8.71.41c-5.52,2.24-7.73,8-8.11,9.05l-.06.19" class="cls-11"></path><path transform="translate(-127.05 -15.91)" d="M148,41.82a2.75,2.75,0,0,1-2.57.1,4.59,4.59,0,0,1-.48-.26c-1.67-1.09-.82-5.32.8-6a2.31,2.31,0,0,1,.9-.19,1.89,1.89,0,0,1,1.52.8l-.29.28a5.12,5.12,0,0,0-1.58,3c0,1.51.93,1.95,1.92,1.51a1.08,1.08,0,0,0,.28-.15c1.07-.66.17-4.23.17-4.23a39.78,39.78,0,0,0,7.85-3.35c3.7-2.29,8.24-5.32,8.24-5.32a35.13,35.13,0,0,0,3.54,8.56c2.54,4.34,5.48,5.41,5.48,5.41l-.1,0a4.92,4.92,0,0,0-2,2.09c-.4,1.19.55,1.53.64,1.44s.4-.06.78-.19a1.51,1.51,0,0,0,1-1A3.39,3.39,0,0,0,173.7,42" class="cls-11"></path><path transform="translate(-127.05 -15.91)" d="M156.33,27.23c.06,0,3.44-2.6,9.71-1.69a23.43,23.43,0,0,1,3.49.82,11.87,11.87,0,0,1,7.91,8.57,11.93,11.93,0,0,1-.77,6.56" class="cls-11"></path><path transform="translate(-127.05 -15.91)" d="M146.67,35.11A17.86,17.86,0,0,1,150.82,27c2.51-2.61,7.43-4.11,8.57-4.27a15,15,0,0,1,7.74,1.36l.2.1" class="cls-11"></path><path transform="translate(-127.05 -15.91)" d="M166.19,24.49a7.63,7.63,0,0,1,.94-.44,8,8,0,0,1,4.25-.5c1.54.28,5.83,2.89,8.12,8.08a21.31,21.31,0,0,1,1.73,11.16,15.45,15.45,0,0,1-.73,3.38c-1.2,3.81-3.27,6.43-2.32,7.16a3.71,3.71,0,0,0,3.31.22,5.31,5.31,0,0,0,2-2.09s1.16,3.55-.45,5.47a2.16,2.16,0,0,1-.39.36,3.55,3.55,0,0,1-2.77.36,10,10,0,0,1-2.39-.83" class="cls-11"></path><path transform="translate(-127.05 -15.91)" d="M145.41,42a3.18,3.18,0,0,1-2.77,2c-2.15.17-1.47-2-1.47-2s-1.95,4.25.52,6.41a5.2,5.2,0,0,0,2.65,1.24,6.09,6.09,0,0,0,2.85-.18s-.12,1.08,2.05,2a3.84,3.84,0,0,0,3.43.16" class="cls-11"></path><path transform="translate(-127.05 -15.91)" d="M171.68,53.5a5.39,5.39,0,0,1-1.86.68,15.49,15.49,0,0,1-2.19-.23h0s0,.14.05.3c.17.7.67,2.46,1.88,3l.09,0a4.68,4.68,0,0,0,3.15-.06,4.1,4.1,0,0,0,1.63-1.4,5,5,0,0,0,.1,1,2.44,2.44,0,0,0,2.17,2.32,3.35,3.35,0,0,0,3.19-1.5" class="cls-11"></path><path transform="translate(-127.05 -15.91)" d="M146.2,43a.93.93,0,1,1,.75,1.09A.94.94,0,0,1,146.2,43Z" class="cls-11"></path><path transform="translate(-127.05 -15.91)" d="M167.6,54.27s-2.13,5.15-6.85,4.18S156,53.56,156,53.56" class="cls-11"></path><path transform="translate(-127.05 -15.91)" d="M154.65,75.58a49.62,49.62,0,0,0,11.93-7.74,44.17,44.17,0,0,0,7.91-11" class="cls-11"></path><path transform="translate(-127.05 -15.91)" d="M169.37,57.58s-2.79,4.23-5.92,8.23a103.73,103.73,0,0,1-8.8,9.77" class="cls-11"></path><path transform="translate(-127.05 -15.91)" d="M144.31,49.82A13.74,13.74,0,0,0,140.07,54c-1.74,2.72-3.51,8.74-1.25,9.94s11.12,1.63,12.87.73.91-4.4.91-4.4" class="cls-11"></path><path transform="translate(-127.05 -15.91)" d="M138.82,63.92a1.67,1.67,0,0,0,.53,2.15,5.21,5.21,0,0,0,1.82.51,57.79,57.79,0,0,0,7.48.56,9.48,9.48,0,0,0,2.9-.23c.95-.58.14-2.26.14-2.26" class="cls-11"></path><path transform="translate(-127.05 -15.91)" d="M148.65,67.14a35.21,35.21,0,0,0,1.57,8.8,8,8,0,0,0,.78,1.58,56.73,56.73,0,0,0,4.5,5.83c.32.39.52.61.52.61s2.76-2,4.28-1a1.44,1.44,0,0,1,.51.54c.53,1-.59,2.28-.59,2.28s3.43-.55,5.14.24,1.87,4-.42,5.55a1.92,1.92,0,0,1-.28.18c-2.58,1.33-9.58,0-11.45-1.93-.19-.18-.53-.49-1-.89L151,87.81a28.91,28.91,0,0,1-6.54-8.12,27.61,27.61,0,0,1-1.95-5.27,40.71,40.71,0,0,1-1.29-7.84" class="cls-11"></path><path transform="translate(-127.05 -15.91)" d="M155.29,83.54a1,1,0,0,1,.28.66,1,1,0,0,1-1,1,.94.94,0,0,1-.78-.42.91.91,0,0,1-.17-.54,1,1,0,0,1,1-.94A1,1,0,0,1,155.29,83.54Z" class="cls-11"></path><path transform="translate(-127.05 -15.91)" d="M152.6,87.27a1.07,1.07,0,0,1-.19-.13,1.12,1.12,0,1,1,1.85-.86,1.12,1.12,0,0,1-1.63,1" class="cls-11"></path><path transform="translate(-127.05 -15.91)" d="M152.63,87.29a1,1,0,0,1-.42,1.65.82.82,0,0,1-.28,0,1,1,0,0,1-1-1,1.11,1.11,0,0,1,0-.19,1,1,0,0,1,1-.81.9.9,0,0,1,.48.14.5.5,0,0,1,.19.13Z" class="cls-11"></path><path transform="translate(-127.05 -15.91)" d="M150.22,75.94a17.12,17.12,0,0,0,4.41-.35h0c2.41-.51,5.44-2.76,9.06-4.15s8-3.41,8.92-2-3.23,3.16-5.65,5.68-2.43,3-2.43,3" class="cls-11"></path><path transform="translate(-127.05 -15.91)" d="M190.1,71.62l-2.38,1-10.41,4.24L165.83,81.5l-4.83,2,0,0-1.34-3.08,5-2,12.51-5.15,5.5-2.27L194,66.19l2-.85,1.41,3.29-2.07.84-5.24,2.14" class="cls-11"></path><path transform="translate(-127.05 -15.91)" d="M193.84,65.83s-.71-1.4,1.41-3,4.1.64,5.9,1,5.21-2.51,5.71-.49-3.05,6.08-5.61,6.83-5.87-.67-5.87-.67" class="cls-11"></path><path transform="translate(-127.05 -15.91)" d="M165.77,81.29a1.23,1.23,0,0,0,.06.21,10.9,10.9,0,0,0,.63,1.76,7.7,7.7,0,0,0,2.4,3c2.41,1.72,6.48,3,6.6,5.2.1,1.76-5.86,1.34-10.45,2.18a11.93,11.93,0,0,0-3.2,1A19.09,19.09,0,0,0,159.64,96c-1.07.75-2.22,1.64-3.42,2.55-1.36,1-2.78,2.1-4.2,3-2.45,1.57-4.9,2.71-7,2.52-5.32-.48-10.57-5.18-12.43-10.48s-.69-16,1.16-18.83,8.74-.34,8.74-.34" class="cls-11"></path><path transform="translate(-127.05 -15.91)" d="M182.77,57.47a10.63,10.63,0,0,1,1.5,5.16,1.35,1.35,0,0,1-.56,1.08c-1.8,1.44-7.37.74-7.37.74s-.73,1.56.12,2.13a2.26,2.26,0,0,0,.61.2,17.38,17.38,0,0,0,5.25-.2,2.37,2.37,0,0,0,1-.37c.74-.67.44-2.5.44-2.5" class="cls-11"></path><line y2="54.98" x2="55.56" y1="50.67" x1="55.26" class="cls-11"></line><line y2="51.23" x2="49.96" y1="56.97" x1="49.96" class="cls-11"></line><path transform="translate(-127.05 -15.91)" d="M177.31,76.83s-1.11,3.4.91,4.91a5.56,5.56,0,0,0,3.32,1.12,5.37,5.37,0,0,0,3.09-1c1.82-1.26,4.77-5,5-5.26a23.78,23.78,0,0,0,5.44-.43c1.52-.52,3.42-3,2.37-4.68s-6.83,0-7.31.09h0" class="cls-11"></path><path transform="translate(-127.05 -15.91)" d="M187.79,72.78a.87.87,0,0,1,.28,0,.68.68,0,0,1,.69.68.7.7,0,1,1-1-.63Z" class="cls-11"></path><path transform="translate(-127.05 -15.91)" d="M188.49,76.6a1.16,1.16,0,0,1-.42.08,1.09,1.09,0,1,1,0-2.17,1.08,1.08,0,0,1,1.08,1.08A1.1,1.1,0,0,1,188.49,76.6Z" class="cls-11"></path><polyline points="39.41 67.36 54.49 67.36 58.14 67.36 62.97 67.36 68.35 67.36 77.92 67.36 80.99 82.63 29.16 82.63 28.6 82.63" class="cls-11"></polyline><polyline points="24.96 85.64 81.86 86.22 80.99 82.63" class="cls-11"></polyline><polyline points="32.58 80.08 58.6 80.08 63.44 80.08 68.81 80.08 76.71 80.08 76.01 76.72" class="cls-11"></polyline><line y2="76.72" x2="76.01" y1="70.12" x1="74.93" class="cls-12"></line><line y2="70.12" x2="68.35" y1="75.95" x1="68.81" class="cls-12"></line><line y2="75.95" x2="68.67" y1="79.74" x1="68.81" class="cls-11"></line><line y2="70.29" x2="62.97" y1="76.11" x1="63.44" class="cls-12"></line><line y2="76.11" x2="63.3" y1="79.91" x1="63.44" class="cls-11"></line><line y2="70.29" x2="49.71" y1="76.11" x1="50.18" class="cls-12"></line><line y2="76.11" x2="50.04" y1="79.91" x1="50.18" class="cls-11"></line><line y2="70.43" x2="58.14" y1="76.25" x1="58.6" class="cls-12"></line><line y2="76.25" x2="58.47" y1="80.04" x1="58.6" class="cls-11"></line><path transform="translate(-127.05 -15.91)" d="M134.61,60.16a6.29,6.29,0,0,0,.32,2.65,2.56,2.56,0,0,0,1.27,1.65.61.61,0,0,0,.23,0l.37-.08s.38-.13.32-.15a2.65,2.65,0,0,1-1.25-1.71,6.4,6.4,0,0,1-.29-2.57,1.88,1.88,0,0,0-.5.06c-.07,0-.46.09-.47.18Z" class="cls-1"></path><path transform="translate(-127.05 -15.91)" d="M137.77,75.34a4.13,4.13,0,0,0-2.65,2.18,10.71,10.71,0,0,0-.9,4.26c0,.19,1,.33,1,.2a11.23,11.23,0,0,1,.82-4.1,4,4,0,0,1,2.57-2.26c.21,0-.08-.16-.14-.18a1.45,1.45,0,0,0-.68-.1Z" class="cls-1"></path><path transform="translate(-127.05 -15.91)" d="M137,78.36a8.11,8.11,0,0,0-.34,3,.62.62,0,0,0,.44.47c.11,0,.49.12.47-.12a7.75,7.75,0,0,1,.29-2.87c.07-.21-.11-.39-.29-.49s-.51-.22-.57,0Z" class="cls-1"></path><path transform="translate(-127.05 -15.91)" d="M138.84,80a7.87,7.87,0,0,0-.12,1.38s.1.08.13.09a1.33,1.33,0,0,0,.34.1c.05,0,.51.09.51,0a8.06,8.06,0,0,1,.13-1.38s-.12-.09-.14-.1a1.69,1.69,0,0,0-.34-.09,2,2,0,0,0-.35,0s-.15,0-.16.05Z" class="cls-1"></path><path transform="translate(-127.05 -15.91)" d="M207.89,61.84l.09.08,0,0c-.06-.08,0,0,0,0l.06.09c-.08-.11,0-.06,0,0a.3.3,0,0,1,0,.1l0,.08c0-.07,0-.09,0,0v.06a1.74,1.74,0,0,1,0,.22v.07c0-.06,0-.06,0,0v.1c0,.17,0,.34,0,.52a.66.66,0,0,0,.39.58.26.26,0,0,0,.28,0,.3.3,0,0,0,.12-.25,4.26,4.26,0,0,0-.11-1.18,2.15,2.15,0,0,0-.61-1.05.6.6,0,0,0-.3-.17.25.25,0,0,0-.24.11.56.56,0,0,0,.14.64Z" class="cls-1"></path><path transform="translate(-127.05 -15.91)" d="M209.49,60.64a2.1,2.1,0,0,1,.32.61v0a2.34,2.34,0,0,1,.12.64s.09.09.11.1a1.87,1.87,0,0,0,.32.15,2,2,0,0,0,.34.12s.16,0,.15,0A2.3,2.3,0,0,0,210.4,61a.53.53,0,0,0-.2-.13,2.17,2.17,0,0,0-.35-.15,1.57,1.57,0,0,0-.29-.08s-.11,0-.07,0Z" class="cls-1"></path><path transform="translate(-127.05 -15.91)" d="M149.25,24.21a16.26,16.26,0,0,1,7.42-3.83,16,16,0,0,1,4.14-.35c1.37.06,3.11.17,4.15,1.17.48.45.88-.23.47-.63a6.49,6.49,0,0,0-4-1.42,16.71,16.71,0,0,0-12.74,4.23c-.37.34.19,1.16.55.83Z" class="cls-1"></path><path transform="translate(-127.05 -15.91)" d="M144.09,33.92c-.46,0-.74.41-1,.76a7.09,7.09,0,0,0-.65,1.29,7.73,7.73,0,0,0-.52,2.85.66.66,0,0,0,.41.57c.18.06.47,0,.47-.23a6.93,6.93,0,0,1,.41-2.51,7.71,7.71,0,0,1,.54-1.17c.14-.24.35-.7.68-.71s.28-.3.21-.47a.64.64,0,0,0-.59-.38Z" class="cls-1"></path><path transform="translate(-127.05 -15.91)" d="M157.77,17.26a9.3,9.3,0,0,1,6.35.1c.2.07.33-.06.3-.26a.78.78,0,0,0-.47-.53,9.83,9.83,0,0,0-6.7-.14c-.4.14.18.94.52.83Z" class="cls-1"></path><path transform="translate(-127.05 -15.91)" d="M184.4,57.47a2.61,2.61,0,0,1,.74,1.3,10.14,10.14,0,0,1,.43,1.64,10,10,0,0,1,0,3.49c0,.16.34,0,.4,0s.46-.2.49-.38a10.31,10.31,0,0,0,0-3.46,9.74,9.74,0,0,0-.43-1.69,2.85,2.85,0,0,0-.75-1.36c-.24-.18-1,.41-.89.47Z" class="cls-1"></path><path transform="translate(-127.05 -15.91)" d="M185.6,50.48a7.33,7.33,0,0,1,.68,2.47,11.51,11.51,0,0,1-.17,2.42c-.09.7.63,1.14,1,1.7a4.4,4.4,0,0,1,.58,2.21c0,.45,1,.39,1-.07a4.84,4.84,0,0,0-.5-2.14,4.51,4.51,0,0,0-.59-.9c-.12-.14-.27-.27-.38-.42s-.06-.43,0-.67a8.1,8.1,0,0,0-.62-4.85c-.18-.39-1.15-.2-1,.25Z" class="cls-1"></path><path transform="translate(-127.05 -15.91)" d="M199.32,72.34a4,4,0,0,1-1.43,3.24c-.18.14.11.36.23.42a.61.61,0,0,0,.64,0,4.3,4.3,0,0,0,1.52-3.5c0-.35-1-.58-1-.17Z" class="cls-1"></path><path transform="translate(-127.05 -15.91)" d="M203,65.15a3.39,3.39,0,0,1-.75,1.67,2.75,2.75,0,0,1-.6.53,1.65,1.65,0,0,1-.31.18l-.21.09-.1,0-.05,0c-.12,0-.36.14-.18.28a.89.89,0,0,0,.68.09A3.48,3.48,0,0,0,204,65.16c0-.07-.1-.14-.14-.16a1,1,0,0,0-.35-.06c-.15,0-.47,0-.51.21Z" class="cls-2"></path><path transform="translate(-127.05 -15.91)" d="M199.22,68.46v.2a.09.09,0,0,0,.06,0,.21.21,0,0,0,.11,0,.41.41,0,0,0,.16,0l.19,0,.12,0,.2-.11.06,0a.07.07,0,0,0,0-.08v-.2a.05.05,0,0,0,0,0H200l-.17,0a1.27,1.27,0,0,0-.18.06l-.12,0a1.24,1.24,0,0,0-.2.1l-.06.05a.11.11,0,0,0-.05.09Z" class="cls-2"></path><path transform="translate(-127.05 -15.91)" d="M160.9,75.37a4.78,4.78,0,0,1,1.46-.82l1.77-.78,3.47-1.52c.24-.11-.51-.69-.79-.57l-3.59,1.58-1.77.78a4.76,4.76,0,0,0-1.42.84c-.16.15.63.72.87.49Z" class="cls-2"></path><path transform="translate(-127.05 -15.91)" d="M158,77l1.25-.53a.34.34,0,0,0,.18-.25.54.54,0,0,0,0-.37c-.1-.2-.32-.39-.55-.29l-1.26.53a.36.36,0,0,0-.18.25.68.68,0,0,0,0,.37c.1.19.32.39.56.29Z" class="cls-2"></path><path transform="translate(-127.05 -15.91)" d="M166.93,45.14l2.64-.56c.09,0-.14-.45-.16-.48a1.57,1.57,0,0,0-.2-.3s-.08-.1-.13-.09l-2.64.56c-.09,0,.14.44.16.48a2,2,0,0,0,.2.3s.08.1.13.09Z" class="cls-3"></path><path transform="translate(-127.05 -15.91)" d="M178.44,45.72l-.22.17a.31.31,0,0,0-.1.15.3.3,0,0,0-.05.16.26.26,0,0,0,.05.17.26.26,0,0,0,.1.13l.1.06a.67.67,0,0,0,.24,0l.13,0a.53.53,0,0,0,.23-.13l.22-.17a.28.28,0,0,0,.1-.14.25.25,0,0,0,0-.17.23.23,0,0,0,0-.16.26.26,0,0,0-.1-.13l-.1-.06a.51.51,0,0,0-.24,0l-.13,0a.65.65,0,0,0-.23.13Z" class="cls-3"></path><path transform="translate(-127.05 -15.91)" d="M145.79,36.6a1.64,1.64,0,0,0-.45.46,1.43,1.43,0,0,0-.15.27,1.59,1.59,0,0,0-.07.2.29.29,0,0,0,0,.16.3.3,0,0,0,0,.15.4.4,0,0,0,.27.14.64.64,0,0,0,.36-.11l.1-.09a.55.55,0,0,0,.12-.21,1.18,1.18,0,0,1,.07-.2l-.05.1a1.37,1.37,0,0,1,.13-.2l-.08.1.15-.16-.1.09a.39.39,0,0,1,.1-.08.58.58,0,0,0,.22-.29.38.38,0,0,0,0-.31.47.47,0,0,0-.63,0Z" class="cls-3"></path><path transform="translate(-127.05 -15.91)" d="M149.74,41.6a10.33,10.33,0,0,0,1.78,1.31.64.64,0,0,0,.7,0,.29.29,0,0,0,0-.5,9.9,9.9,0,0,1-.87-.56l-.4-.31-.2-.17s0,0,0,0l-.06,0-.1-.09a.63.63,0,0,0-.68-.11.41.41,0,0,0-.23.22.27.27,0,0,0,.06.27Z" class="cls-3"></path><path transform="translate(-127.05 -15.91)" d="M178.4,79.56a.92.92,0,0,0,0,.28,1.62,1.62,0,0,0,.19.37,1.67,1.67,0,0,0,.28.31l.16.11.09,0a.28.28,0,0,0,.13,0,.15.15,0,0,0,.11,0,.21.21,0,0,0,.06-.1.2.2,0,0,0,0-.13.71.71,0,0,0-.13-.34l-.09-.1a.49.49,0,0,0-.18-.14l-.1-.05.1.06-.08-.06.09.08-.06-.06.09.1-.06-.07.07.11a.25.25,0,0,0,0-.07l0,.11,0-.09,0,.11s0-.08,0-.12a.47.47,0,0,0,0-.16l-.09-.17a.64.64,0,0,0-.13-.15.71.71,0,0,0-.14-.1c-.07,0-.17-.07-.24,0l0,.06a.25.25,0,0,0,0,.17Z" class="cls-3"></path><path transform="translate(-127.05 -15.91)" d="M179.74,80.38l.32.7s.13,0,.15,0a1.45,1.45,0,0,0,.36,0,1.37,1.37,0,0,0,.34-.07s.16,0,.14-.08l-.31-.69s-.13,0-.16,0a2,2,0,0,0-.35,0l-.35.07s-.15,0-.14.08Z" class="cls-3"></path><path transform="translate(-127.05 -15.91)" d="M195.1,72.7a1.72,1.72,0,0,1-.12,1.18,1.7,1.7,0,0,1-.81.82c-.2.09,0,.24.14.28a.89.89,0,0,0,.68,0,2,2,0,0,0,1.08-2.27c0-.07-.16-.13-.21-.15a1.17,1.17,0,0,0-.38-.07c-.11,0-.43,0-.38.17Z" class="cls-3"></path><path transform="translate(-127.05 -15.91)" d="M141,55.48l-.25.89a.47.47,0,0,0,.08.34.67.67,0,0,0,.29.26.44.44,0,0,0,.32,0l.09-.06a.31.31,0,0,0,.09-.18l.25-.89a.43.43,0,0,0-.08-.33.59.59,0,0,0-.28-.26.42.42,0,0,0-.33,0l-.09.06a.31.31,0,0,0-.09.18Z" class="cls-1"></path><path transform="translate(-127.05 -15.91)" d="M140.35,57.47q-.21.93-.39,1.86c-.06.3-.12.61-.17.92a3.37,3.37,0,0,0-.09,1c0,.33,1,.64.93.28a3.16,3.16,0,0,1,.09-.92c.05-.3.1-.59.16-.88.12-.6.25-1.2.38-1.79.05-.21-.19-.36-.35-.43s-.51-.19-.56,0Z" class="cls-1"></path><path transform="translate(-127.05 -15.91)" d="M139.47,62.33v.55s.14,0,.14,0a2,2,0,0,0,.35,0,2,2,0,0,0,.35,0s.15,0,.15,0v-.54s-.14-.06-.14-.06l-.35,0h-.36s-.14,0-.14,0Z" class="cls-1"></path><path transform="translate(-127.05 -15.91)" d="M129.42,80.23a41.51,41.51,0,0,0-.32,7c0,.37.9-.06.88-.42a41.81,41.81,0,0,1,.31-6.8c.06-.47-.82-.07-.87.26Z" class="cls-1"></path><path transform="translate(-127.05 -15.91)" d="M127.37,79.92a8,8,0,0,0-.22,3.45c0,.19.25.37.39.48s.39.26.37.11a8,8,0,0,1,.2-3.37c0-.15-.19-.35-.28-.43s-.43-.34-.46-.24Z" class="cls-1"></path><path transform="translate(-127.05 -15.91)" d="M182,34.41a7.22,7.22,0,0,1,.39,1.3.42.42,0,0,0,.22.27.59.59,0,0,0,.37,0,.49.49,0,0,0,.38-.55,8.1,8.1,0,0,0-.38-1.3.46.46,0,0,0-.22-.27.5.5,0,0,0-.38,0,.51.51,0,0,0-.31.21.41.41,0,0,0-.07.34Z" class="cls-1"></path><path transform="translate(-127.05 -15.91)" d="M182.67,37.49A16.88,16.88,0,0,1,183,40a11.75,11.75,0,0,1,0,1.19,2.42,2.42,0,0,1-.2,1.1c-.05.1.85.5.94.33a2.3,2.3,0,0,0,.2-1.1c0-.4,0-.79,0-1.19a18.46,18.46,0,0,0-.32-2.45c0-.14-.32-.22-.43-.26s-.52-.14-.51-.08Z" class="cls-1"></path><path transform="translate(-127.05 -15.91)" d="M159.79,65.72l-.53,1a.28.28,0,0,0,0,.25.79.79,0,0,0,.28.23.61.61,0,0,0,.35.09.23.23,0,0,0,.22-.1l.52-1a.23.23,0,0,0,0-.24.72.72,0,0,0-.28-.24.73.73,0,0,0-.35-.09c-.08,0-.18,0-.22.11Z" class="cls-1"></path><path transform="translate(-127.05 -15.91)" d="M158.54,67.82a34,34,0,0,1-3.08,4.36c-.32.38.46,1,.78.62a33.07,33.07,0,0,0,3.09-4.36.48.48,0,0,0-.17-.61c-.14-.11-.49-.23-.62,0Z" class="cls-1"></path><path transform="translate(-127.05 -15.91)" d="M185.86,71.29c.15.36.29.73.41,1.11,0,.08.16.12.24.13a.62.62,0,0,0,.35-.08.66.66,0,0,0,.28-.24l0-.1a.25.25,0,0,0,0-.17c-.12-.38-.26-.75-.41-1.11a.31.31,0,0,0-.24-.13.62.62,0,0,0-.35.08c-.17.09-.4.29-.3.51Z" class="cls-1"></path><path transform="translate(-127.05 -15.91)" d="M179.06,74.47l.37.69a.51.51,0,0,0,.28.2.65.65,0,0,0,.39,0,.53.53,0,0,0,.25-.26.45.45,0,0,0,0-.34L180,74a.45.45,0,0,0-.28-.2.41.41,0,0,0-.19,0,.41.41,0,0,0-.19.05.49.49,0,0,0-.25.26.4.4,0,0,0,0,.34Z" class="cls-1"></path><path transform="translate(-127.05 -15.91)" d="M171,77.51c.08.35.17.69.28,1,0,.06.18.11.22.12a1.65,1.65,0,0,0,.38,0,.65.65,0,0,0,.31,0l.05,0a.05.05,0,0,0,0-.08l0-.08v.05c-.09-.3-.17-.61-.24-.91,0-.07-.08-.1-.14-.13a1,1,0,0,0-.35-.08,1,1,0,0,0-.35,0s-.17,0-.16.1Z" class="cls-1"></path></svg>