<?xml version="1.0" encoding="UTF-8"?>
<svg width="279px" height="416px" viewBox="0 0 279 416" version="1.1" xmlns="http://www.w3.org/2000/svg" xmlns:xlink="http://www.w3.org/1999/xlink">
    <!-- Generator: Sketch 63 (92445) - https://sketch.com -->
    <title>小朋友</title>
    <desc>Created with Sketch.</desc>
    <g id="页面-1" stroke="none" stroke-width="1" fill="none" fill-rule="evenodd">
        <g id="iPhone-8" transform="translate(-852.000000, -15.000000)">
            <g id="编组-6" transform="translate(53.000000, 15.000000)">
                <g id="小朋友" transform="translate(799.000000, 0.000000)">
                    <polygon id="路径-362" fill="#FFBCA2" points="101.051652 357.357981 90.5599483 398.121673 102.310654 401.351175 125.408742 357.357981"></polygon>
                    <path d="M72.8127923,137.650407 C77.1468841,148.282803 102.286761,167.695896 139.205503,162.584467 C170.102932,158.306694 182.239215,127.37758 185.18894,108.094414 C187.078403,106.419207 189.638306,98.8326529 189.638306,96.2334036 C189.638306,94.9638905 189.75626,89.4643197 187.966473,86.054913 C186.176686,82.6455062 182.834602,85.5227832 182.466512,84.4358613 C174.556597,61.0789184 150.756631,24.2673099 109.906028,35.1731858 C58.7937697,48.8186136 55.5719583,90.9279318 62.1657049,109.414688 C56.6588932,105.00045 41.4656885,100.331712 39.2206562,112.084975 C35.3944505,136.434956 62.1657049,137.650407 72.8127923,137.650407 Z" id="路径-351" fill="#FFBCA2"></path>
                    <path d="M122.484253,48.374947 C120.468956,74.5977526 105.57941,93.7040167 77.8156172,105.693739 C69.7528026,109.461492 69.7528026,120.252828 72.1274872,123.914296 C66.5192933,119.723678 62.6060028,114.230664 60.3876159,107.435253 C54.4353072,85.5620043 59.6688416,65.8752358 76.0882193,48.374947 C93.399891,33.4488993 113.953195,28.3908093 137.748133,33.2006769 C166.532898,43.316857 181.439024,60.3952518 182.466512,84.4358613 C166.949159,61.9092436 146.955072,49.8889388 122.484253,48.374947 Z" id="路径-352" fill="#5E120F"></path>
                    <path d="M88.5787093,41.8691378 C82.252716,36.8779704 75.0974677,37.7350757 67.1129644,44.4404536 C59.1284612,51.1458315 55.0146808,57.9721207 54.7716233,64.9193213 C54.8262138,71.9919836 57.4468803,75.5283147 62.633623,75.5283147 C67.8203657,75.5283147 76.4687278,64.3085891 88.5787093,41.8691378 Z" id="路径-353" fill="#5E120F"></path>
                    <path d="M21.5664945,21.6121034 C23.8549067,17.6395814 35.7877942,-2.16208536 62.1832518,0.439458257 C87.5882826,4.2213499 79.7058115,37.5767859 73.9552925,42.233822 C70.1216131,45.3385127 64.8072056,50.8165757 58.01207,58.6680109 C43.5361016,65.4435954 32.4345433,66.2270812 24.7073951,61.0184685 C14.192397,55.5135905 13.3818263,34.1327634 21.5664945,21.6121034 Z" id="路径-354" fill="#5E120F"></path>
                    <path d="M121.554266,120.3596 C136.049655,122.517477 147.058242,123.022737 154.580026,121.87538 C149.968108,130.758462 145.657412,136.001528 135.62203,134.77535 C128.931775,133.957899 124.242521,129.152649 121.554266,120.3596 Z" id="路径-355" fill="#E6561A"></path>
                    <path d="M111.222048,220.210413 C43.5584849,244.824968 9.72670318,273.635341 9.72670318,306.641532 C2.07136735,309.39909 -0.844997476,315.133277 0.97760869,323.844093 C4.32419826,331.052293 10.8090888,335.008238 20.4322804,335.711929 C26.1883235,336.739025 32.1338084,340.539281 38.2687352,347.112696 C44.2080462,353.621756 52.7719231,356.876286 63.9603659,356.876286 C76.2422424,371.041437 107.253517,376.113862 137.207103,371.041437 C153.11437,373.841899 174.72244,380.616834 190.391849,367.558411 C190.391849,317.745871 186.346372,265.559432 161.776737,233.149875 C145.396981,211.543503 128.545418,207.230349 111.222048,220.210413 Z" id="路径-361" fill="#608595"></path>
                    <path d="M108.435011,220.657005 C106.931499,198.432724 104.55389,183.493837 101.302184,175.840346 C96.4246243,164.360108 110.89938,150.88654 122.262967,154.541182 C129.838692,156.977611 140.611045,162.850992 154.580026,172.161326 C158.751838,194.878678 159.809461,213.226972 157.752896,227.206206 C135.312455,228.260279 118.87316,226.077212 108.435011,220.657005 Z" id="路径-356" fill="#F8B14C"></path>
                    <g id="编组-27" transform="translate(207.785713, 204.428367) rotate(13.000000) translate(-207.785713, -204.428367) translate(162.237059, 134.123094)" fill="#F1C56C">
                        <g id="编组-26" transform="translate(53.279702, 3.692671)">
                            <path d="M10.1753919,13.2667267 C10.8729636,5.8679212 12.501863,2.68044139 15.0620901,3.70428726 C17.3766602,5.42711109 15.7477608,8.6145909 10.1753919,13.2667267 Z" id="路径-368"></path>
                            <path d="M12.2428913,14.7948155 C12.2428913,14.7948155 13.8558936,9.20264094 16.1475339,10.4010443 C18.8146096,12.5287564 12.2428913,14.7948155 12.2428913,14.7948155 Z" id="路径-368" transform="translate(14.513671, 12.513750) rotate(28.000000) translate(-14.513671, -12.513750) "></path>
                            <path d="M6.22098413,12.3902942 C6.22098413,12.3902942 6.74641757,6.767667 9.58676806,8.1760155 C12.8758506,9.84908351 6.22098413,12.3902942 6.22098413,12.3902942 Z" id="路径-368" transform="translate(8.360393, 10.169954) rotate(-62.000000) translate(-8.360393, -10.169954) "></path>
                        </g>
                        <g id="编组-26" transform="translate(24.056716, 30.121999) scale(-1, 1) rotate(25.000000) translate(-24.056716, -30.121999) translate(11.634355, 17.715186)">
                            <path d="M10.1753919,13.2667267 C10.8729636,5.8679212 12.501863,2.68044139 15.0620901,3.70428726 C17.3766602,5.42711109 15.7477608,8.6145909 10.1753919,13.2667267 Z" id="路径-368"></path>
                            <path d="M12.2428913,14.7948155 C12.2428913,14.7948155 13.8558936,9.20264094 16.1475339,10.4010443 C18.8146096,12.5287564 12.2428913,14.7948155 12.2428913,14.7948155 Z" id="路径-368" transform="translate(14.513671, 12.513750) rotate(28.000000) translate(-14.513671, -12.513750) "></path>
                            <path d="M6.22098413,12.3902942 C6.22098413,12.3902942 6.74641757,6.767667 9.58676806,8.1760155 C12.8758506,9.84908351 6.22098413,12.3902942 6.22098413,12.3902942 Z" id="路径-368" transform="translate(8.360393, 10.169954) rotate(-62.000000) translate(-8.360393, -10.169954) "></path>
                        </g>
                        <g id="编组-26" transform="translate(61.265505, 99.548047)">
                            <path d="M10.1753919,13.2667267 C10.8729636,5.8679212 12.501863,2.68044139 15.0620901,3.70428726 C17.3766602,5.42711109 15.7477608,8.6145909 10.1753919,13.2667267 Z" id="路径-368"></path>
                            <path d="M12.2428913,14.7948155 C12.2428913,14.7948155 13.8558936,9.20264094 16.1475339,10.4010443 C18.8146096,12.5287564 12.2428913,14.7948155 12.2428913,14.7948155 Z" id="路径-368" transform="translate(14.513671, 12.513750) rotate(28.000000) translate(-14.513671, -12.513750) "></path>
                            <path d="M6.22098413,12.3902942 C6.22098413,12.3902942 6.74641757,6.767667 9.58676806,8.1760155 C12.8758506,9.84908351 6.22098413,12.3902942 6.22098413,12.3902942 Z" id="路径-368" transform="translate(8.360393, 10.169954) rotate(-62.000000) translate(-8.360393, -10.169954) "></path>
                        </g>
                        <g id="编组-26" transform="translate(33.092897, 120.090261) scale(-1, 1) rotate(25.000000) translate(-33.092897, -120.090261) translate(20.670537, 107.683448)">
                            <path d="M10.1753919,13.2667267 C10.8729636,5.8679212 12.501863,2.68044139 15.0620901,3.70428726 C17.3766602,5.42711109 15.7477608,8.6145909 10.1753919,13.2667267 Z" id="路径-368"></path>
                            <path d="M12.2428913,14.7948155 C12.2428913,14.7948155 13.8558936,9.20264094 16.1475339,10.4010443 C18.8146096,12.5287564 12.2428913,14.7948155 12.2428913,14.7948155 Z" id="路径-368" transform="translate(14.513671, 12.513750) rotate(28.000000) translate(-14.513671, -12.513750) "></path>
                            <path d="M6.22098413,12.3902942 C6.22098413,12.3902942 6.74641757,6.767667 9.58676806,8.1760155 C12.8758506,9.84908351 6.22098413,12.3902942 6.22098413,12.3902942 Z" id="路径-368" transform="translate(8.360393, 10.169954) rotate(-62.000000) translate(-8.360393, -10.169954) "></path>
                        </g>
                    </g>
                    <g id="编组-27" transform="translate(227.260325, 199.630605) rotate(11.000000) translate(-227.260325, -199.630605) translate(169.289311, 116.918520)">
                        <g id="编组-25">
                            <path d="M23.4222277,7.93675571 L6.86084981,142.585652 C33.2772628,149.021643 59.7165877,155.158543 86.1788245,160.996351 C91.4965141,162.169481 91.5358141,162.445337 96.8829394,162.445337 C99.755963,162.445337 102.625698,161.962341 105.492146,160.996351 L111.801242,41.5079152 L106.650243,27.7725507 L33.6803582,0 C32.453143,2.89611244 30.8852922,5.0824703 28.976806,6.55907358 C27.4659154,7.72805554 25.6143893,8.18728292 23.4222277,7.93675571 Z" id="路径-359" fill="#FF8C90" transform="translate(59.331046, 81.222668) scale(-1, 1) translate(-59.331046, -81.222668) "></path>
                            <polygon id="路径-359" fill="#FF6368" transform="translate(50.862093, 80.498176) scale(-1, 1) translate(-50.862093, -80.498176) " points="16.7424524 0 -4.62717188e-14 138.474318 88.5542402 160.996351 101.724186 27.7725507"></polygon>
                            <path d="M75.0580535,12.4321367 L78.4675816,15.3847197 L92.2848705,129.482681 L89.8066101,133.209345 L23.9350851,149.936785 L20.3427686,147.895575 L8.59526277,37.1578381 L11.3312187,32.8357601 L75.0580535,12.4321367 Z M73.4269185,18.4009481 L14.156961,37.6521758 L25.8405359,143.896662 L86.7110813,128.469255 L73.4269185,18.4009481 Z" id="形状结合" fill="#FFECC9"></path>
                            <path d="M87.9912761,8.33471486 C92.7707738,48.7536892 98.2677559,91.6579212 104.482223,137.047411 C99.423719,91.8785312 94.2909575,49.1492875 89.0839381,8.85967964 C88.8488824,7.48577598 87.795992,6.94630672 87.9912761,8.33471486 Z" id="路径-369" fill="#FFC2C4"></path>
                            <path d="M92.5475072,23.9119192 C97.3270049,64.3308935 101.305243,97.6656227 104.482223,123.916107 C102.777936,104.417789 101.280874,88.8145472 99.9910362,77.1063823 C98.2347496,61.164145 96.1177939,43.6076456 93.6401692,24.4368839 C93.4051135,23.0629803 92.3522231,22.523511 92.5475072,23.9119192 Z" id="路径-369" fill="#FFC2C4"></path>
                            <path d="M93.4516616,14.6069897 C98.2311592,55.025964 103.181465,95.8394378 108.302579,137.047411 C104.055053,96.5150904 99.3277795,56.1041262 94.1207601,15.8145184 C93.8857044,14.4406147 93.2563774,13.2185816 93.4516616,14.6069897 Z" id="路径-369" fill="#FFC2C4"></path>
                        </g>
                        <g id="编组-26" transform="translate(52.983931, 19.668567)" fill="#F1C56C">
                            <path d="M10.1753919,13.2667267 C10.8729636,5.8679212 12.501863,2.68044139 15.0620901,3.70428726 C17.3766602,5.42711109 15.7477608,8.6145909 10.1753919,13.2667267 Z" id="路径-368"></path>
                            <path d="M12.2428913,14.7948155 C12.2428913,14.7948155 13.8558936,9.20264094 16.1475339,10.4010443 C18.8146096,12.5287564 12.2428913,14.7948155 12.2428913,14.7948155 Z" id="路径-368" transform="translate(14.513671, 12.513750) rotate(28.000000) translate(-14.513671, -12.513750) "></path>
                            <path d="M6.22098413,12.3902942 C6.22098413,12.3902942 6.74641757,6.767667 9.58676806,8.1760155 C12.8758506,9.84908351 6.22098413,12.3902942 6.22098413,12.3902942 Z" id="路径-368" transform="translate(8.360393, 10.169954) rotate(-62.000000) translate(-8.360393, -10.169954) "></path>
                        </g>
                        <g id="编组-26" transform="translate(23.760945, 46.097895) scale(-1, 1) rotate(25.000000) translate(-23.760945, -46.097895) translate(11.338585, 33.691082)" fill="#F1C56C">
                            <path d="M10.1753919,13.2667267 C10.8729636,5.8679212 12.501863,2.68044139 15.0620901,3.70428726 C17.3766602,5.42711109 15.7477608,8.6145909 10.1753919,13.2667267 Z" id="路径-368"></path>
                            <path d="M12.2428913,14.7948155 C12.2428913,14.7948155 13.8558936,9.20264094 16.1475339,10.4010443 C18.8146096,12.5287564 12.2428913,14.7948155 12.2428913,14.7948155 Z" id="路径-368" transform="translate(14.513671, 12.513750) rotate(28.000000) translate(-14.513671, -12.513750) "></path>
                            <path d="M6.22098413,12.3902942 C6.22098413,12.3902942 6.74641757,6.767667 9.58676806,8.1760155 C12.8758506,9.84908351 6.22098413,12.3902942 6.22098413,12.3902942 Z" id="路径-368" transform="translate(8.360393, 10.169954) rotate(-62.000000) translate(-8.360393, -10.169954) "></path>
                        </g>
                        <g id="编组-26" transform="translate(60.969734, 115.523943)" fill="#F1C56C">
                            <path d="M10.1753919,13.2667267 C10.8729636,5.8679212 12.501863,2.68044139 15.0620901,3.70428726 C17.3766602,5.42711109 15.7477608,8.6145909 10.1753919,13.2667267 Z" id="路径-368"></path>
                            <path d="M12.2428913,14.7948155 C12.2428913,14.7948155 13.8558936,9.20264094 16.1475339,10.4010443 C18.8146096,12.5287564 12.2428913,14.7948155 12.2428913,14.7948155 Z" id="路径-368" transform="translate(14.513671, 12.513750) rotate(28.000000) translate(-14.513671, -12.513750) "></path>
                            <path d="M6.22098413,12.3902942 C6.22098413,12.3902942 6.74641757,6.767667 9.58676806,8.1760155 C12.8758506,9.84908351 6.22098413,12.3902942 6.22098413,12.3902942 Z" id="路径-368" transform="translate(8.360393, 10.169954) rotate(-62.000000) translate(-8.360393, -10.169954) "></path>
                        </g>
                        <g id="编组-26" transform="translate(32.797127, 136.066157) scale(-1, 1) rotate(25.000000) translate(-32.797127, -136.066157) translate(20.374767, 123.659344)" fill="#F1C56C">
                            <path d="M10.1753919,13.2667267 C10.8729636,5.8679212 12.501863,2.68044139 15.0620901,3.70428726 C17.3766602,5.42711109 15.7477608,8.6145909 10.1753919,13.2667267 Z" id="路径-368"></path>
                            <path d="M12.2428913,14.7948155 C12.2428913,14.7948155 13.8558936,9.20264094 16.1475339,10.4010443 C18.8146096,12.5287564 12.2428913,14.7948155 12.2428913,14.7948155 Z" id="路径-368" transform="translate(14.513671, 12.513750) rotate(28.000000) translate(-14.513671, -12.513750) "></path>
                            <path d="M6.22098413,12.3902942 C6.22098413,12.3902942 6.74641757,6.767667 9.58676806,8.1760155 C12.8758506,9.84908351 6.22098413,12.3902942 6.22098413,12.3902942 Z" id="路径-368" transform="translate(8.360393, 10.169954) rotate(-62.000000) translate(-8.360393, -10.169954) "></path>
                        </g>
                    </g>
                    <g id="编组-27" transform="translate(144.908255, 112.422845)">
                        <g id="编组-25">
                            <path d="M23.4222277,7.93675571 L6.86084981,142.585652 C33.2772628,149.021643 59.7165877,155.158543 86.1788245,160.996351 C91.4965141,162.169481 91.5358141,162.445337 96.8829394,162.445337 C99.755963,162.445337 102.625698,161.962341 105.492146,160.996351 L111.801242,41.5079152 L106.650243,27.7725507 L33.6803582,0 C32.453143,2.89611244 30.8852922,5.0824703 28.976806,6.55907358 C27.4659154,7.72805554 25.6143893,8.18728292 23.4222277,7.93675571 Z" id="路径-359" fill="#FF8C90" transform="translate(59.331046, 81.222668) scale(-1, 1) translate(-59.331046, -81.222668) "></path>
                            <polygon id="路径-359" fill="#FF6368" transform="translate(50.862093, 80.498176) scale(-1, 1) translate(-50.862093, -80.498176) " points="16.7424524 0 -4.62717188e-14 138.474318 88.5542402 160.996351 101.724186 27.7725507"></polygon>
                            <path d="M75.0580535,12.4321367 L78.4675816,15.3847197 L92.2848705,129.482681 L89.8066101,133.209345 L23.9350851,149.936785 L20.3427686,147.895575 L8.59526277,37.1578381 L11.3312187,32.8357601 L75.0580535,12.4321367 Z M73.4269185,18.4009481 L14.156961,37.6521758 L25.8405359,143.896662 L86.7110813,128.469255 L73.4269185,18.4009481 Z" id="形状结合" fill="#FFECC9"></path>
                            <path d="M87.9912761,8.33471486 C92.7707738,48.7536892 98.2677559,91.6579212 104.482223,137.047411 C99.423719,91.8785312 94.2909575,49.1492875 89.0839381,8.85967964 C88.8488824,7.48577598 87.795992,6.94630672 87.9912761,8.33471486 Z" id="路径-369" fill="#FFC2C4"></path>
                            <path d="M92.5475072,23.9119192 C97.3270049,64.3308935 101.305243,97.6656227 104.482223,123.916107 C102.777936,104.417789 101.280874,88.8145472 99.9910362,77.1063823 C98.2347496,61.164145 96.1177939,43.6076456 93.6401692,24.4368839 C93.4051135,23.0629803 92.3522231,22.523511 92.5475072,23.9119192 Z" id="路径-369" fill="#FFC2C4"></path>
                            <path d="M93.4516616,14.6069897 C98.2311592,55.025964 103.181465,95.8394378 108.302579,137.047411 C104.055053,96.5150904 99.3277795,56.1041262 94.1207601,15.8145184 C93.8857044,14.4406147 93.2563774,13.2185816 93.4516616,14.6069897 Z" id="路径-369" fill="#FFC2C4"></path>
                        </g>
                        <g id="编组-26" transform="translate(52.983931, 19.668567)" fill="#F1C56C">
                            <path d="M10.1753919,13.2667267 C10.8729636,5.8679212 12.501863,2.68044139 15.0620901,3.70428726 C17.3766602,5.42711109 15.7477608,8.6145909 10.1753919,13.2667267 Z" id="路径-368"></path>
                            <path d="M12.2428913,14.7948155 C12.2428913,14.7948155 13.8558936,9.20264094 16.1475339,10.4010443 C18.8146096,12.5287564 12.2428913,14.7948155 12.2428913,14.7948155 Z" id="路径-368" transform="translate(14.513671, 12.513750) rotate(28.000000) translate(-14.513671, -12.513750) "></path>
                            <path d="M6.22098413,12.3902942 C6.22098413,12.3902942 6.74641757,6.767667 9.58676806,8.1760155 C12.8758506,9.84908351 6.22098413,12.3902942 6.22098413,12.3902942 Z" id="路径-368" transform="translate(8.360393, 10.169954) rotate(-62.000000) translate(-8.360393, -10.169954) "></path>
                        </g>
                        <g id="编组-26" transform="translate(23.760945, 46.097895) scale(-1, 1) rotate(25.000000) translate(-23.760945, -46.097895) translate(11.338585, 33.691082)" fill="#F1C56C">
                            <path d="M10.1753919,13.2667267 C10.8729636,5.8679212 12.501863,2.68044139 15.0620901,3.70428726 C17.3766602,5.42711109 15.7477608,8.6145909 10.1753919,13.2667267 Z" id="路径-368"></path>
                            <path d="M12.2428913,14.7948155 C12.2428913,14.7948155 13.8558936,9.20264094 16.1475339,10.4010443 C18.8146096,12.5287564 12.2428913,14.7948155 12.2428913,14.7948155 Z" id="路径-368" transform="translate(14.513671, 12.513750) rotate(28.000000) translate(-14.513671, -12.513750) "></path>
                            <path d="M6.22098413,12.3902942 C6.22098413,12.3902942 6.74641757,6.767667 9.58676806,8.1760155 C12.8758506,9.84908351 6.22098413,12.3902942 6.22098413,12.3902942 Z" id="路径-368" transform="translate(8.360393, 10.169954) rotate(-62.000000) translate(-8.360393, -10.169954) "></path>
                        </g>
                        <g id="编组-26" transform="translate(60.969734, 115.523943)" fill="#F1C56C">
                            <path d="M10.1753919,13.2667267 C10.8729636,5.8679212 12.501863,2.68044139 15.0620901,3.70428726 C17.3766602,5.42711109 15.7477608,8.6145909 10.1753919,13.2667267 Z" id="路径-368"></path>
                            <path d="M12.2428913,14.7948155 C12.2428913,14.7948155 13.8558936,9.20264094 16.1475339,10.4010443 C18.8146096,12.5287564 12.2428913,14.7948155 12.2428913,14.7948155 Z" id="路径-368" transform="translate(14.513671, 12.513750) rotate(28.000000) translate(-14.513671, -12.513750) "></path>
                            <path d="M6.22098413,12.3902942 C6.22098413,12.3902942 6.74641757,6.767667 9.58676806,8.1760155 C12.8758506,9.84908351 6.22098413,12.3902942 6.22098413,12.3902942 Z" id="路径-368" transform="translate(8.360393, 10.169954) rotate(-62.000000) translate(-8.360393, -10.169954) "></path>
                        </g>
                        <g id="编组-26" transform="translate(32.797127, 136.066157) scale(-1, 1) rotate(25.000000) translate(-32.797127, -136.066157) translate(20.374767, 123.659344)" fill="#F1C56C">
                            <path d="M10.1753919,13.2667267 C10.8729636,5.8679212 12.501863,2.68044139 15.0620901,3.70428726 C17.3766602,5.42711109 15.7477608,8.6145909 10.1753919,13.2667267 Z" id="路径-368"></path>
                            <path d="M12.2428913,14.7948155 C12.2428913,14.7948155 13.8558936,9.20264094 16.1475339,10.4010443 C18.8146096,12.5287564 12.2428913,14.7948155 12.2428913,14.7948155 Z" id="路径-368" transform="translate(14.513671, 12.513750) rotate(28.000000) translate(-14.513671, -12.513750) "></path>
                            <path d="M6.22098413,12.3902942 C6.22098413,12.3902942 6.74641757,6.767667 9.58676806,8.1760155 C12.8758506,9.84908351 6.22098413,12.3902942 6.22098413,12.3902942 Z" id="路径-368" transform="translate(8.360393, 10.169954) rotate(-62.000000) translate(-8.360393, -10.169954) "></path>
                        </g>
                    </g>
                    <path d="M100.329393,171.977034 C100.324904,177.770539 118.873972,198.60629 132.31882,200.054818 C136.279065,199.325907 147.41745,192.561578 143.148201,188.814366 C131.422748,178.522686 102.933224,169.274388 100.329393,171.977034 Z" id="路径-409" fill="#EBA137"></path>
                    <path d="M135.245746,189.859721 C158.862473,201.707405 176.993859,209.276227 189.639905,212.566185 C191.70124,214.799565 193.533653,216.713122 195.137143,218.306856 C197.318553,220.474993 200.080466,222.091673 203.422882,223.156895 C204.094458,222.832921 203.065201,221.423183 200.335109,218.92768 C201.425456,219.356599 203.866107,222.303866 207.450633,224.277031 C207.967049,224.66268 208.949506,224.250863 208.609706,223.482576 C207.968413,222.032617 203.74092,217.799865 203.422882,216.972135 C204.072606,216.700572 207.450633,220.441997 210.766516,222.885089 C211.606675,223.407625 212.422609,222.532835 212.106906,221.837475 C210.159319,218.897696 208.123631,216.811919 205.804878,214.110851 C206.302406,214.110851 210.366958,216.811919 213.706723,218.306856 C214.435084,218.632882 215.424646,217.818783 214.67083,216.972135 C211.244182,213.306157 208.391953,211.74077 204.707951,208.692878 C208.149342,207.315806 208.609706,206.15886 208.609706,203.405689 C205.147599,204.212578 202.668851,205.449968 199.031275,205.449968 C196.606224,205.449968 179.471972,195.98557 147.628517,177.056772 L135.245746,189.859721 Z" id="路径-358" fill="#FB9D76"></path>
                    <path d="M132.604933,195.578144 C125.390707,197.314064 102.106418,177.418531 100.326468,171.977034 C100.168213,159.188224 112.051743,153.533692 118.495251,153.93076 C124.651055,154.310099 148.457366,165.970471 150.824495,169.762114 C152.250427,177.909733 138.635346,194.127078 132.604933,195.578144 Z" id="路径-357" fill="#FCBF66"></path>
                    <path d="M90.2120361,380.883034 L117.536506,383.334413 L108.804959,401.240503 C107.864255,403.732511 114.198859,404.978515 127.808772,404.978515 C132.232223,405.654903 134.080825,409.022869 133.354577,415.082411 L80.6202015,414.403748 L90.2120361,380.883034 Z" id="路径-363" fill="#B92C3F"></path>
                    <path d="M140.258877,98.1367709 L142.805965,98.4897435 C142.393509,101.466065 143.029043,103.208385 144.623713,104.030325 C148.188203,105.867566 148.89747,108.255173 147.124499,110.869685 C146.388129,111.955574 145.127657,113.070509 143.335009,114.250475 L142.195495,114.966546 L140.869347,112.763463 C142.985059,111.489909 144.365349,110.356852 144.996265,109.426472 C145.876107,108.129012 145.679584,107.467456 143.445609,106.316001 C141.04361,105.07794 139.960819,102.703578 140.134832,99.4131793 L140.258877,98.1367709 Z" id="路径" fill="#C2421F" fill-rule="nonzero"></path>
                    <path d="M95.3725642,103.968652 C105.534726,92.5178158 115.004793,92.5178158 123.460029,104.090797 C124.027234,104.86715 124.119132,106.283071 123.665291,107.253345 C123.211449,108.22362 122.383728,108.380824 121.816523,107.604471 C114.292355,97.3058761 106.067642,97.3058761 96.8196494,107.726616 C96.2130096,108.410185 95.3972899,108.123077 94.9976883,107.085344 C94.5980868,106.047611 94.7659244,104.65222 95.3725642,103.968652 Z" id="路径" fill="#5E120F" fill-rule="nonzero"></path>
                    <path d="M157.890362,91.2251736 C164.3011,90.6539226 170.749299,98.3627289 170.749299,103.371563 C170.749299,104.614204 170.160415,105.621563 169.43399,105.621563 C168.707565,105.621563 168.118681,104.614204 168.118681,103.371563 C168.118681,101.291998 163.080442,95.2687948 158.027208,95.7190807 C156.110222,95.8899003 153.914311,98.0083617 151.783469,100.842663 C151.210006,101.605445 150.383643,101.42856 149.937735,100.44758 C149.491828,99.4666007 149.595231,98.0530034 150.168694,97.2902223 C152.72491,93.890117 155.24273,91.4611 157.890362,91.2251736 Z" id="路径" fill="#5E120F" fill-rule="nonzero" transform="translate(160.205005, 98.695148) scale(-1, 1) translate(-160.205005, -98.695148) "></path>
                    <path d="M149.977369,83.3210617 C157.269824,78.7938752 162.610996,76.4716546 166.000884,76.3543999 C170.483475,76.3543999 173.425754,77.1917189 174.827722,78.866357 C171.266345,77.9089799 168.324065,77.7731984 166.000884,78.4590126 C163.677703,79.1448268 158.967084,80.9868556 151.869025,83.9850988 L149.977369,83.3210617 Z" id="路径-366" fill="#5E120F"></path>
                    <path d="M94.0767475,83.3210617 C101.369203,78.7938752 106.710375,76.4716546 110.100263,76.3543999 C114.582854,76.3543999 117.525133,77.1917189 118.9271,78.866357 C115.365723,77.9089799 112.423444,77.7731984 110.100263,78.4590126 C107.777082,79.1448268 103.066462,80.9868556 95.9684041,83.9850988 L94.0767475,83.3210617 Z" id="路径-366" fill="#5E120F" transform="translate(106.501924, 80.169749) scale(-1, 1) translate(-106.501924, -80.169749) "></path>
                    <path d="M51.7050776,127.655872 C48.8786788,126.446303 48.1090656,121.224062 47.922725,119.451898 C47.2120695,112.693315 55.4996491,109.37473 57.5077507,115.628426 C60.1060431,123.720113 63.3011059,127.729261 67.0929392,127.655872 C62.2164674,130.856215 57.0871803,130.856215 51.7050776,127.655872 Z" id="路径-482" fill="#E87D51"></path>
                </g>
            </g>
        </g>
    </g>
</svg>