<svg xml:space="preserve" style="enable-background:new 0 0 190.26 190.26;" viewBox="0 0 190.26 190.26" y="0px" x="0px" xmlns:xlink="http://www.w3.org/1999/xlink" xmlns="http://www.w3.org/2000/svg" id="图层_1" version="1.1">
<style type="text/css">
	.st0{fill:#E4F7F5;stroke:#000000;stroke-width:0.75;stroke-miterlimit:10;}
	.st1{fill:#84B4C8;stroke:#020202;stroke-width:0.75;stroke-miterlimit:10;}
	.st2{fill:none;stroke:#000000;stroke-width:0.75;stroke-miterlimit:10;}
	.st3{opacity:0.43;fill:#105770;}
	.st4{fill:#FFFFFF;stroke:#000000;stroke-width:0.75;stroke-miterlimit:10;}
	.st5{fill:#AAAAB5;}
	.st6{fill:#FFB68D;stroke:#000000;stroke-width:0.75;stroke-miterlimit:10;}
	.st7{fill:#FFB704;stroke:#000000;stroke-width:0.75;stroke-miterlimit:10;}
	.st8{fill:#FA7900;}
	.st9{fill:#DF7D51;}
	.st10{fill:#070707;}
	.st11{fill:#332D53;stroke:#000000;stroke-width:0.75;stroke-miterlimit:10;}
	.st12{fill:#FB9587;stroke:#070707;stroke-width:0.75;stroke-miterlimit:10;}
	.st13{fill:none;stroke:#070707;stroke-width:0.75;stroke-miterlimit:10;}
	.st14{fill:#7FDDF2;stroke:#000000;stroke-width:0.75;stroke-miterlimit:10;}
	.st15{fill:#62413D;}
	.st16{fill:#2D74B9;}
	.st17{fill:#FDD83E;}
	.st18{fill:#FFF7F6;}
	.st19{fill:#E95661;}
	.st20{fill:#FDD08E;}
	.st21{fill:#F1631A;}
	.st22{fill:#352C36;}
	.st23{fill:#2FAFE9;}
	.st24{fill:#FFFFF8;}
	.st25{fill:#FF5E6E;}
	.st26{fill:#D87D44;stroke:#000000;stroke-width:0.75;stroke-miterlimit:10;}
	.st27{fill:#673701;stroke:#000000;stroke-width:0.75;stroke-miterlimit:10;}
	.st28{fill:#3575FF;stroke:#000000;stroke-width:0.75;stroke-miterlimit:10;}
	.st29{fill:#0E499D;}
	.st30{fill:none;stroke:#060A80;stroke-width:2;stroke-miterlimit:10;}
	.st31{fill:#0F8EB1;stroke:#000000;stroke-miterlimit:10;}
	.st32{fill:#FFFFFF;stroke:#000000;stroke-miterlimit:10;}
	.st33{fill:#06B3FC;}
	.st34{fill:#F4D72F;stroke:#020202;stroke-width:0.75;stroke-miterlimit:10;}
	.st35{fill:#E7402E;stroke:#000000;stroke-width:0.75;stroke-miterlimit:10;}
	.st36{fill:#FE739E;stroke:#000000;stroke-width:0.75;stroke-miterlimit:10;}
	.st37{fill:#FCC0D1;stroke:#000000;stroke-width:0.75;stroke-miterlimit:10;}
	.st38{enable-background:new    ;}
	.st39{fill:#130D0B;}
	.st40{fill:#150E0C;}
	.st41{fill:#888888;}
	.st42{fill:#EFEFEF;}
	.st43{fill:#979797;}
	.st44{fill:#211714;}
	.st45{fill:#FE739E;}
	.st46{fill:#FCC0D1;}
	.st47{fill:#CE7B02;stroke:#000000;stroke-width:0.75;stroke-miterlimit:10;}
	.st48{fill:#E38A32;stroke:#000000;stroke-width:0.75;stroke-miterlimit:10;}
	.st49{fill:#FFE366;stroke:#000000;stroke-width:0.75;stroke-miterlimit:10;}
	.st50{fill:#FFFFFF;stroke:#231815;stroke-width:0.75;stroke-miterlimit:10;}
	.st51{fill:#FAC6B1;stroke:#000000;stroke-width:0.75;stroke-miterlimit:10;}
	.st52{fill:#F9AE94;}
	.st53{fill:#5DDBFA;stroke:#000000;stroke-width:0.75;stroke-miterlimit:10;}
	.st54{fill:#FFDE63;stroke:#000000;stroke-width:0.75;stroke-miterlimit:10;}
	.st55{opacity:0.63;fill:#F68E06;}
	.st56{fill:none;stroke:#000000;stroke-miterlimit:10;}
	.st57{fill:#A7A7B2;}
	.st58{fill:#FF157F;}
	.st59{fill:none;stroke:#231815;stroke-width:0.75;stroke-miterlimit:10;}
	.st60{fill:#FFA6C2;stroke:#000000;stroke-width:0.75;stroke-miterlimit:10;}
	.st61{fill:#FE739E;stroke:#000000;stroke-miterlimit:10;}
	.st62{display:none;fill:#0F8AAD;stroke:#000000;stroke-miterlimit:10;}
	.st63{fill:#FE739E;stroke:#020202;stroke-width:0.75;stroke-miterlimit:10;}
	.st64{fill:#8E7D57;stroke:#000000;stroke-width:0.75;stroke-miterlimit:10;}
	.st65{fill:#E6FDFF;stroke:#000000;stroke-width:0.75;stroke-miterlimit:10;}
	.st66{fill:#077B84;stroke:#000000;stroke-width:0.75;stroke-miterlimit:10;}
	.st67{fill:#F1AB93;stroke:#000000;stroke-width:0.75;stroke-miterlimit:10;}
	.st68{fill:#FFF1C5;stroke:#020202;stroke-width:0.75;stroke-miterlimit:10;}
	.st69{fill:#EF937B;}
	.st70{fill:#1CC8AC;stroke:#000000;stroke-width:0.75;stroke-miterlimit:10;}
	.st71{fill:#C9C9C9;stroke:#000000;stroke-width:0.75;stroke-miterlimit:10;}
	.st72{fill:none;stroke:#020202;stroke-width:0.75;stroke-miterlimit:10;}
	.st73{fill:#FFFFFF;}
	.st74{fill:#011A64;stroke:#000000;stroke-width:0.75;stroke-miterlimit:10;}
	.st75{fill:none;stroke:#FFFFFF;stroke-width:0.75;stroke-miterlimit:10;}
	.st76{fill:#D7E0F4;stroke:#000000;stroke-width:0.75;stroke-miterlimit:10;}
	.st77{fill:#FFBEB0;stroke:#000000;stroke-width:0.75;stroke-miterlimit:10;}
	.st78{fill:#3C5788;stroke:#000000;stroke-width:0.75;stroke-miterlimit:10;}
	.st79{fill:#F99F91;}
	.st80{fill:#1B2B4B;}
	.st81{fill:#84B3C8;stroke:#000000;stroke-width:0.75;stroke-miterlimit:10;}
	.st82{fill:#D7F7FF;stroke:#000000;stroke-width:0.75;stroke-miterlimit:10;}
	.st83{fill:#C8E3ED;stroke:#000000;stroke-width:0.75;stroke-miterlimit:10;}
	.st84{fill:#0F8EB1;stroke:#000000;stroke-width:0.5;stroke-miterlimit:10;}
	.st85{fill:#380F87;stroke:#000000;stroke-width:0.75;stroke-miterlimit:10;}
	.st86{fill:#220C59;}
	.st87{fill:#FF765F;stroke:#000000;stroke-width:0.75;stroke-miterlimit:10;}
	.st88{fill:#E38A31;stroke:#000000;stroke-width:0.75;stroke-miterlimit:10;}
	.st89{fill:#995B22;stroke:#000000;stroke-width:0.75;stroke-miterlimit:10;}
</style>
<g>
	<g>
		<path d="M74.23,162.24c0,0-6.44,18.36-3.12,21.32c2.65,2.37,24.58,5.29,30.57-0.68c2.9-2.89-0.37-6.23-1.82-10.87
			c-1.81-5.79-1.2-12.69-1.2-12.69L74.23,162.24z" class="st0"></path>
		<path d="M101.68,182.88c1.34-1.34,1.36-2.77,0.86-4.38c-4.06,0.83-9.98,1.73-16.46,1.73c-7.5,0-12.7-0.95-15.85-1.79
			c-0.21,2.39-0.03,4.32,0.87,5.12C73.76,185.92,95.69,188.85,101.68,182.88z" class="st1"></path>
		<path d="M77.32,176.67c0,0,8.74-2.38,16.46,0" class="st2"></path>
		<path d="M77.57,174.17c0,0,8.74-2.38,16.46,0" class="st2"></path>
		<path d="M77.57,171.68c0,0,8.74-2.38,16.46,0" class="st2"></path>
	</g>
	<g>
		<path d="M114.2,129.9c0,0,4.43,12.63,2.15,14.66c-1.82,1.63-16.91,3.64-21.03-0.46c-2-1.99,0.25-4.28,1.25-7.48
			c1.25-3.98,0.82-8.73,0.82-8.73L114.2,129.9z" class="st0"></path>
		<path d="M95.32,144.1c-0.92-0.92-0.94-1.9-0.59-3.01c2.79,0.57,6.86,1.19,11.32,1.19c5.16,0,8.74-0.65,10.9-1.23
			c0.14,1.64,0.02,2.97-0.6,3.52C114.52,146.19,99.44,148.2,95.32,144.1z" class="st1"></path>
		<path d="M112.08,139.82c0,0-6.01-1.64-11.32,0" class="st2"></path>
		<path d="M111.9,138.1c0,0-6.01-1.64-11.32,0" class="st2"></path>
		<path d="M111.9,136.39c0,0-6.01-1.64-11.32,0" class="st2"></path>
	</g>
	<path d="M105.83,134l-8.44-6.11c0,0,0.42,4.75-0.82,8.73c-1,3.19-3.25,5.49-1.25,7.48c2.14,2.13,7.99,2.67,12.65,2.42
		C107.49,141.07,107.12,140.2,105.83,134z" class="st3"></path>
	<path d="M98.67,159.33l-23.99,2.86c-0.29,0.91-0.68,2.12-1.08,3.51c2.85,10.08,21.73,6.53,25.68,4.03
		C98.2,164.56,98.67,159.33,98.67,159.33z" class="st3"></path>
	<g>
		<path d="M74.23,162.24c0,0-6.44,18.36-3.12,21.32c2.65,2.37,24.58,5.29,30.57-0.68c2.9-2.89-0.37-6.23-1.82-10.87
			c-1.81-5.79-1.2-12.69-1.2-12.69L74.23,162.24z" class="st2"></path>
	</g>
	<path d="M91.61,88.03c0,0-3.85,31.96-0.94,44.05c1.44,5.96,23.53,3.26,24.42,2.28c6.92-7.7-7.17-46.7-7.17-46.7
		L91.61,88.03z" class="st4"></path>
	<path d="M89.59,118.12c0.68,6.27,1.65,12.23,3.06,16.12c2.97,1.55,8.66,1.75,13.57,1.47
		c-4.21-19.21-11.23-39.69-13.32-45.61l-1.54,0.23C90.82,95.32,89.63,107.5,89.59,118.12z" class="st5"></path>
	<path d="M93.34,87.99l-1.72,0.04c0,0-3.85,31.96-0.94,44.05c0.83,3.44,8.54,3.99,15.09,3.66
		C102.74,118.12,96.53,97.83,93.34,87.99z" class="st5"></path>
	<path d="M91.61,88.03c0,0-3.85,31.96-0.94,44.05c1.44,5.96,23.53,3.26,24.42,2.28c6.92-7.7-7.17-46.7-7.17-46.7
		L91.61,88.03z" class="st2"></path>
	<path d="M75.82,85.41c0,0-9.07,55.69-3.33,78.84c2.83,11.41,24.91,5.99,25.82,3.6c7.38-19.36-6.23-80.04-6.23-80.04
		L75.82,85.41z" class="st4"></path>
	<path d="M90.74,96.58c1.4-0.07,2.89-0.19,4.5-0.4c2.4-0.3,8.57-1.71,13.12-2.78c0.48-0.11,0.92-0.29,1.34-0.5
		c-1.05-3.22-1.78-5.25-1.78-5.25l-16.3,0.37C91.61,88.03,91.2,91.5,90.74,96.58z" class="st5"></path>
	<path d="M74.65,93.32c3.12,2.09,8.88,4.1,19.2,3.02c-1.03-5.26-1.77-8.53-1.77-8.53l-16.27-2.4
		C75.82,85.41,75.33,88.42,74.65,93.32z" class="st5"></path>
	<path d="M75.82,85.41c0,0-9.07,55.69-3.33,78.84c2.83,11.41,24.91,5.99,25.82,3.6c7.38-19.36-6.23-80.04-6.23-80.04
		L75.82,85.41z" class="st2"></path>
	<path d="M74.2,86.43c0,0,3.61,10.96,2.26,14.12c-0.53,1.23-3.47,1.69-4.33,0.83c-2.39-2.38-1.24-15.42-1.24-15.42
		L74.2,86.43z" class="st6"></path>
	<g>
		<g>
			<path d="M118.66,21.24c0,0,5.09-10.36,8.27-11.66c1.24-0.51,3.66,1.22,3.67,2.44c0.04,3.37-9.9,11.88-9.9,11.88
				L118.66,21.24z" class="st6"></path>
			<path d="M129.2,31.33c0,0,15.3-7.2,14.11-11.3c-0.48-1.66-2.37-2.41-2.37-2.41s-0.21-1.3-1.39-2.46
				c-0.95-0.94-3.01-1.49-3.01-1.49s-0.92-3.12-3.14-3.36c-4.25-0.45-10.82,13.23-10.82,13.23L129.2,31.33z" class="st6"></path>
		</g>
		<path d="M126.93,15.93c0,0-1.28,1.14,1.04,3.45c2.3,2.29,8.56-5.72,8.56-5.72" class="st2"></path>
		<path d="M140.94,17.62c0,0-7.11,8.1-9.92,5.12c-1.97-2.09,0.33-3.92,0.33-3.92" class="st2"></path>
		<path d="M134.47,22.92c0,0-1.43,1.72-0.47,3.03c1.62,2.19,4.09,0.36,4.09,0.36" class="st2"></path>
	</g>
	<path d="M94.9,48.07c0,0,8.41-29.51,17.15-31.44c4.17-0.92,26.46,11.77,22.96,23.97
		c-3.37,11.77-32.46,23.05-32.46,23.05L94.9,48.07z" class="st7"></path>
	<path d="M86.33,44.66c0,0,11.62,0.61,16.78,6.15c4.87,5.22,8.29,22.95,9.76,32.03c0.5,3.08-1.47,6.03-4.51,6.74
		c-4.55,1.07-10.72,2.47-13.12,2.78c-20.41,2.58-24.01-6.52-24.01-6.52l2.86-32.21l4.67-5.66L86.33,44.66z" class="st7"></path>
	<path d="M83.77,46.18c0,0-0.44,0.01-1.14,0.1l-3.87,1.7l-4.67,5.66l-2.86,32.21c0,0,1.7,4.3,9.39,6.15
		c2.89-0.77,5.71-1.88,7.56-3.36c3.07-2.44,1.97-6.86,1.97-6.86L83.77,46.18z" class="st8"></path>
	<path d="M86.33,44.66c0,0,11.62,0.61,16.78,6.15c4.87,5.22,8.29,22.95,9.76,32.03c0.5,3.08-1.47,6.03-4.51,6.74
		c-4.55,1.07-10.72,2.47-13.12,2.78c-20.41,2.58-24.01-6.52-24.01-6.52l2.86-32.21l4.67-5.66L86.33,44.66z" class="st2"></path>
	<path d="M60.63,83.42c0,0-5.88,15.85-2.17,17.95c1.5,0.85,3.38,0.06,3.38,0.06s1.06,0.78,2.72,0.78
		c1.34,0,3.2-1.05,3.2-1.05s2.85,1.58,4.6,0.2c3.35-2.65-1.54-17.03-1.54-17.03L60.63,83.42z" class="st6"></path>
	<path d="M70.62,91.46c1.51-0.09,3.19-0.29,4.87-0.61c-0.64-2.48-1.28-4.43-1.28-4.43l-3.32-0.47
		C70.88,85.96,70.66,88.45,70.62,91.46z" class="st9"></path>
	<path d="M72.72,91.28c-0.8-3.69-1.9-6.94-1.9-6.94l-10.19-0.92c0,0-0.79,2.14-1.61,4.95c2.32,1.74,5.42,2.75,7.69,3.04
		C68.13,91.59,70.33,91.55,72.72,91.28z" class="st9"></path>
	<path d="M60.63,83.42c0,0-5.88,15.85-2.17,17.95c1.5,0.85,3.38,0.06,3.38,0.06s1.06,0.78,2.72,0.78
		c1.34,0,3.2-1.05,3.2-1.05s2.85,1.58,4.6,0.2c3.35-2.65-1.54-17.03-1.54-17.03L60.63,83.42z" class="st2"></path>
	<path d="M74.2,86.43l-2.85-0.41c1.17,3.87,3.65,13.25,1,15.34c-0.04,0.03-0.09,0.06-0.13,0.09
		c0.97,0.74,3.72,0.28,4.23-0.91C77.81,97.39,74.2,86.43,74.2,86.43z" class="st2"></path>
	<path d="M82.33,44.78c0,0-5.92-0.36-9.9,3.87c-7.88,8.39-16.62,25.36-16.04,32.64c0.39,4.98,6.95,7.74,10.94,8.24
		c3.6,0.45,12.22-0.42,16.35-3.32c3.08-2.16,2.34-6.52,2.34-6.52L82.33,44.78z" class="st7"></path>
	<path d="M95.24,24.31c0,0,3.32,10.99,1.17,13.65c-1.48,1.83-9.34,1.17-9.34,1.17l-0.74,5.53c0,0,9.34,2.79,7.73,5.36
		c-1.33,2.13-6.83,2.44-10.19,0.96c-0.43-0.19-1.96-0.13-2.46-2.88c-1.45-8.04-1.91-25.2-1.91-25.2L95.24,24.31z" class="st6"></path>
	<ellipse ry="1.81" rx="0.86" cy="27.74" cx="94.38" class="st10"></ellipse>
	<ellipse ry="1.81" rx="0.86" cy="28.65" cx="86.36" class="st10"></ellipse>
	<path d="M81.22,11.65c4.04-2.43,12.36-4.7,18.2-4.55c4.37,0.11,7.06,2.27,7.13,2.95c0.33,3.15-10.51,7.07-10.51,7.07
		s7.09,0.85,7.62,5.96c0.4,3.89-15.17,5.59-22.5,4.15c-2.6-0.51-5.22-2.35-5.72-5.03C74.8,18.75,77.09,14.13,81.22,11.65z" class="st11"></path>
	<ellipse ry="1.84" rx="2.49" cy="33.55" cx="85.82" class="st12"></ellipse>
	<ellipse ry="1.84" rx="2.49" cy="32.53" cx="96.23" class="st12"></ellipse>
	<path d="M91.22,29.67c0,0,1.87,3.69,1.05,4.49c-0.25,0.24-1.32-0.35-1.32-0.35" class="st13"></path>
	<path d="M90.15,36.47c0,0,2.12,0.5,2.66,0.44c0.6-0.07,1.45-1.06,1.45-1.06" class="st13"></path>
</g>
</svg>
